<svg width="10" height="12" viewBox="0 0 10 12" fill="none" xmlns="http://www.w3.org/2000/svg">
<path d="M9.16666 5.16666H2.84166L5.59166 2.42499C5.74858 2.26807 5.83674 2.05524 5.83674 1.83333C5.83674 1.61141 5.74858 1.39858 5.59166 1.24166C5.43474 1.08474 5.22191 0.996582 5 0.996582C4.77808 0.996582 4.56525 1.08474 4.40833 1.24166L0.241662 5.40833C0.165795 5.48758 0.106324 5.58103 0.0666617 5.68333C-0.0166867 5.88621 -0.0166867 6.11377 0.0666617 6.31666C0.106324 6.41895 0.165795 6.51241 0.241662 6.59166L4.40833 10.7583C4.4858 10.8364 4.57797 10.8984 4.67951 10.9407C4.78106 10.983 4.88999 11.0048 5 11.0048C5.11001 11.0048 5.21893 10.983 5.32048 10.9407C5.42203 10.8984 5.51419 10.8364 5.59166 10.7583C5.66977 10.6809 5.73176 10.5887 5.77407 10.4871C5.81638 10.3856 5.83816 10.2767 5.83816 10.1667C5.83816 10.0566 5.81638 9.94773 5.77407 9.84618C5.73176 9.74463 5.66977 9.65246 5.59166 9.57499L2.84166 6.83333H9.16666C9.38768 6.83333 9.59964 6.74553 9.75592 6.58925C9.9122 6.43297 10 6.22101 10 5.99999C10 5.77898 9.9122 5.56702 9.75592 5.41074C9.59964 5.25446 9.38768 5.16666 9.16666 5.16666Z" fill="#2D58FF"/>
</svg>
