<svg width="64" height="64" viewBox="0 0 64 64" fill="none" xmlns="http://www.w3.org/2000/svg">
<rect width="64" height="64" rx="32" fill="#FFAB00"/>
<g clip-path="url(#clip0_4717_11664)">
<path d="M32.0001 45.3333C24.6361 45.3333 18.6667 39.364 18.6667 32C18.6667 24.636 24.6361 18.6667 32.0001 18.6667C39.3641 18.6667 45.3334 24.636 45.3334 32C45.3334 39.364 39.3641 45.3333 32.0001 45.3333ZM32.0001 42.6667C34.8291 42.6667 37.5422 41.5429 39.5426 39.5425C41.5429 37.5421 42.6667 34.829 42.6667 32C42.6667 29.171 41.5429 26.4579 39.5426 24.4575C37.5422 22.4571 34.8291 21.3333 32.0001 21.3333C29.1711 21.3333 26.458 22.4571 24.4576 24.4575C22.4572 26.4579 21.3334 29.171 21.3334 32C21.3334 34.829 22.4572 37.5421 24.4576 39.5425C26.458 41.5429 29.1711 42.6667 32.0001 42.6667ZM30.6667 36H33.3334V38.6667H30.6667V36ZM30.6667 25.3333H33.3334V33.3333H30.6667V25.3333Z" fill="white"/>
</g>
<defs>
<clipPath id="clip0_4717_11664">
<rect width="32" height="32" fill="white" transform="translate(16 16)"/>
</clipPath>
</defs>
</svg>
