<svg width="32" height="33" viewBox="0 0 32 33" fill="none" xmlns="http://www.w3.org/2000/svg">
<rect y="0.5" width="32" height="32" rx="6" fill="#F0F4FF"/>
<path d="M14.3333 17.3333H8.49999C8.27898 17.3333 8.06701 17.4211 7.91073 17.5774C7.75445 17.7337 7.66666 17.9457 7.66666 18.1667V24C7.66666 24.221 7.75445 24.433 7.91073 24.5893C8.06701 24.7455 8.27898 24.8333 8.49999 24.8333H14.3333C14.5543 24.8333 14.7663 24.7455 14.9226 24.5893C15.0789 24.433 15.1667 24.221 15.1667 24V18.1667C15.1667 17.9457 15.0789 17.7337 14.9226 17.5774C14.7663 17.4211 14.5543 17.3333 14.3333 17.3333ZM13.5 23.1667H9.33332V19H13.5V23.1667ZM23.5 8.16667H17.6667C17.4456 8.16667 17.2337 8.25447 17.0774 8.41075C16.9211 8.56703 16.8333 8.77899 16.8333 9.00001V14.8333C16.8333 15.0544 16.9211 15.2663 17.0774 15.4226C17.2337 15.5789 17.4456 15.6667 17.6667 15.6667H23.5C23.721 15.6667 23.933 15.5789 24.0892 15.4226C24.2455 15.2663 24.3333 15.0544 24.3333 14.8333V9.00001C24.3333 8.77899 24.2455 8.56703 24.0892 8.41075C23.933 8.25447 23.721 8.16667 23.5 8.16667ZM22.6667 14H18.5V9.83334H22.6667V14ZM23.5 17.3333H17.6667C17.4456 17.3333 17.2337 17.4211 17.0774 17.5774C16.9211 17.7337 16.8333 17.9457 16.8333 18.1667V24C16.8333 24.221 16.9211 24.433 17.0774 24.5893C17.2337 24.7455 17.4456 24.8333 17.6667 24.8333H23.5C23.721 24.8333 23.933 24.7455 24.0892 24.5893C24.2455 24.433 24.3333 24.221 24.3333 24V18.1667C24.3333 17.9457 24.2455 17.7337 24.0892 17.5774C23.933 17.4211 23.721 17.3333 23.5 17.3333ZM22.6667 23.1667H18.5V19H22.6667V23.1667ZM14.3333 8.16667H8.49999C8.27898 8.16667 8.06701 8.25447 7.91073 8.41075C7.75445 8.56703 7.66666 8.77899 7.66666 9.00001V14.8333C7.66666 15.0544 7.75445 15.2663 7.91073 15.4226C8.06701 15.5789 8.27898 15.6667 8.49999 15.6667H14.3333C14.5543 15.6667 14.7663 15.5789 14.9226 15.4226C15.0789 15.2663 15.1667 15.0544 15.1667 14.8333V9.00001C15.1667 8.77899 15.0789 8.56703 14.9226 8.41075C14.7663 8.25447 14.5543 8.16667 14.3333 8.16667ZM13.5 14H9.33332V9.83334H13.5V14Z" fill="#2D58FF"/>
</svg>
