<svg width="19" height="15" viewBox="0 0 19 15" fill="none" xmlns="http://www.w3.org/2000/svg">
<path d="M17.9083 5.49168L17.075 5.03335L9.575 0.866681L9.48333 0.866681C9.43224 0.84508 9.37923 0.828339 9.325 0.816681H9.16667H9.01667C8.95973 0.828347 8.90395 0.84508 8.85 0.866681H8.75833L1.25833 5.03335C1.13009 5.10603 1.02341 5.21143 0.949195 5.3388C0.874979 5.46616 0.835876 5.61094 0.835876 5.75835C0.835876 5.90576 0.874979 6.05053 0.949195 6.1779C1.02341 6.30527 1.13009 6.41067 1.25833 6.48335L3.33333 7.63335L3.33333 11.5833C3.33333 12.2464 3.59673 12.8823 4.06557 13.3511C4.53441 13.82 5.17029 14.0833 5.83333 14.0833L12.5 14.0833C13.163 14.0833 13.7989 13.82 14.2678 13.3511C14.7366 12.8823 15 12.2464 15 11.5833V7.63335L16.6667 6.70002V9.08335C16.6667 9.30436 16.7545 9.51632 16.9107 9.6726C17.067 9.82888 17.279 9.91668 17.5 9.91668C17.721 9.91668 17.933 9.82888 18.0893 9.6726C18.2455 9.51632 18.3333 9.30436 18.3333 9.08335V6.21668C18.3331 6.06902 18.2936 5.92407 18.2189 5.79668C18.1442 5.66929 18.0371 5.56404 17.9083 5.49168ZM13.3333 11.5833C13.3333 11.8044 13.2455 12.0163 13.0893 12.1726C12.933 12.3289 12.721 12.4167 12.5 12.4167L5.83333 12.4167C5.61232 12.4167 5.40036 12.3289 5.24408 12.1726C5.0878 12.0163 5 11.8044 5 11.5833L5 8.55835L8.75833 10.6417L8.88333 10.6917H8.95833C9.0275 10.7004 9.0975 10.7004 9.16667 10.6917C9.23584 10.7004 9.30583 10.7004 9.375 10.6917H9.45C9.49424 10.6824 9.53653 10.6654 9.575 10.6417L13.3333 8.55835V11.5833ZM9.16667 8.96668L3.38333 5.75001L9.16667 2.53335L14.95 5.75001L9.16667 8.96668Z" fill="#969CAF"/>
</svg>
