<svg width="36" height="37" viewBox="0 0 36 37" fill="none" xmlns="http://www.w3.org/2000/svg">
<rect y="0.5" width="36" height="36" rx="8" fill="#D8514B" fill-opacity="0.08"/>
<path d="M10.5 13.5H12.1667H25.5" fill="#D8514B"/>
<path d="M10.5 13.5H12.1667H25.5" stroke="#D8514B" stroke-width="2" stroke-linecap="round" stroke-linejoin="round"/>
<path d="M14.6666 13.5V11.8333C14.6666 11.3913 14.8422 10.9674 15.1548 10.6548C15.4673 10.3423 15.8913 10.1667 16.3333 10.1667H19.6666C20.1087 10.1667 20.5326 10.3423 20.8451 10.6548C21.1577 10.9674 21.3333 11.3913 21.3333 11.8333V13.5M23.8333 13.5V25.1667C23.8333 25.6087 23.6577 26.0326 23.3451 26.3452C23.0326 26.6577 22.6087 26.8333 22.1666 26.8333H13.8333C13.3913 26.8333 12.9673 26.6577 12.6548 26.3452C12.3422 26.0326 12.1666 25.6087 12.1666 25.1667V13.5H23.8333Z" stroke="#D8514B" stroke-width="2" stroke-linecap="round" stroke-linejoin="round"/>
<path d="M19.6666 17.6667V22.6667" stroke="#D8514B" stroke-width="2" stroke-linecap="round" stroke-linejoin="round"/>
<path d="M16.3334 17.6667V22.6667" stroke="#D8514B" stroke-width="2" stroke-linecap="round" stroke-linejoin="round"/>
</svg>
