<svg width="36" height="37" viewBox="0 0 36 37" fill="none" xmlns="http://www.w3.org/2000/svg">
<rect y="0.5" width="36" height="36" rx="8" fill="#2D58FF" fill-opacity="0.08"/>
<path d="M18 25.1667H25.5H18Z" fill="#2D58FF"/>
<path d="M18 25.1667H25.5" stroke="#2D58FF" stroke-width="2" stroke-linecap="round" stroke-linejoin="round"/>
<path d="M21.75 11.4167C22.0815 11.0851 22.5312 10.8989 23 10.8989C23.2321 10.8989 23.462 10.9446 23.6765 11.0335C23.891 11.1223 24.0858 11.2525 24.25 11.4167C24.4142 11.5808 24.5444 11.7757 24.6332 11.9902C24.722 12.2046 24.7678 12.4345 24.7678 12.6667C24.7678 12.8988 24.722 13.1287 24.6332 13.3432C24.5444 13.5576 24.4142 13.7525 24.25 13.9167L13.8333 24.3333L10.5 25.1667L11.3333 21.8333L21.75 11.4167Z" stroke="#2D58FF" stroke-width="2" stroke-linecap="round" stroke-linejoin="round"/>
</svg>
