<svg width="32" height="33" viewBox="0 0 32 33" fill="none" xmlns="http://www.w3.org/2000/svg">
<rect y="0.5" width="32" height="32" rx="6" fill="#F0F4FF"/>
<circle cx="16" cy="16.5" r="8.33333" fill="#D2DFFA" stroke="white"/>
<path d="M16 8.16667C17.4626 8.16667 18.8995 8.55165 20.1663 9.28291C21.433 10.0142 22.485 11.066 23.2164 12.3326C23.9479 13.5992 24.3331 15.036 24.3333 16.4987C24.3336 17.9614 23.9488 19.3983 23.2177 20.6652C22.4867 21.932 21.4351 22.9841 20.1685 23.7158C18.902 24.4475 17.4653 24.8329 16.0026 24.8333C14.5399 24.8338 13.1029 24.4493 11.836 23.7184C10.569 22.9875 9.51671 21.9361 8.78486 20.6697L16 16.5V8.16667Z" fill="#D2DFFA" stroke="white"/>
<path d="M16 8.16667C17.4626 8.16667 18.8995 8.55165 20.1663 9.28291C21.433 10.0142 22.485 11.066 23.2164 12.3326C23.9479 13.5992 24.3331 15.036 24.3333 16.4987C24.3336 17.9614 23.9488 19.3983 23.2177 20.6652L16 16.5V8.16667Z" fill="#2D58FF" stroke="white"/>
</svg>
