<svg width="22" height="22" viewBox="0 0 22 22" fill="none" xmlns="http://www.w3.org/2000/svg">
<circle cx="11" cy="11" r="10" fill="#2D58FF"/>
<circle cx="11" cy="11" r="10" fill="#D2DFFA"/>
<circle cx="11" cy="11" r="10" fill="#2EBD56"/>
<circle cx="11" cy="11" r="10" stroke="white"/>
<path d="M14.8032 7.91059L14.8608 8.04884L14.8032 7.91059C14.7073 7.95055 14.6203 8.00908 14.5471 8.08281C14.547 8.08289 14.5469 8.08297 14.5468 8.08305L9.90134 12.7348L8.01096 10.8384L8.01097 10.8383L8.00894 10.8364C7.9332 10.7632 7.8438 10.7057 7.74583 10.6671L7.69083 10.8066L7.74583 10.6671C7.64786 10.6285 7.54325 10.6095 7.43797 10.6114C7.33268 10.6132 7.22879 10.6357 7.13221 10.6777C7.03564 10.7197 6.94828 10.7803 6.87512 10.856C6.80196 10.9317 6.74444 11.0211 6.70583 11.1191C6.66722 11.2171 6.64829 11.3217 6.65011 11.427C6.65193 11.5322 6.67447 11.6361 6.71644 11.7327C6.75824 11.8289 6.81848 11.9159 6.89376 11.9889L9.34185 14.437C9.34195 14.437 9.34204 14.4371 9.34213 14.4372C9.41532 14.5109 9.50236 14.5695 9.59824 14.6094C9.69425 14.6494 9.79723 14.67 9.90124 14.67C10.0052 14.67 10.1082 14.6494 10.2042 14.6094C10.3001 14.5695 10.3872 14.5109 10.4603 14.4372C10.4604 14.4371 10.4605 14.437 10.4606 14.437L15.6631 9.23443C15.742 9.16107 15.805 9.0723 15.8483 8.97361L15.7109 8.91343L15.8483 8.97361C15.8919 8.87394 15.9145 8.76632 15.9145 8.65751C15.9145 8.5487 15.8919 8.44108 15.8483 8.34141L15.7109 8.40159L15.8483 8.34141C15.8051 8.24277 15.7421 8.15404 15.6633 8.0807C15.5905 8.00796 15.5042 7.95017 15.4092 7.91059C15.3132 7.87059 15.2102 7.85 15.1062 7.85C15.0022 7.85 14.8992 7.87059 14.8032 7.91059Z" fill="white" stroke="white" stroke-width="0.3"/>
</svg>
