<svg width="40" height="40" viewBox="0 0 40 40" fill="none" xmlns="http://www.w3.org/2000/svg">
<circle cx="20" cy="20" r="18" fill="white" stroke="#F8F8F8" stroke-width="4"/>
<path d="M19.4084 22.7417C19.3726 22.7813 19.3392 22.823 19.3084 22.8667C19.2769 22.9131 19.2517 22.9636 19.2334 23.0167C19.2094 23.0639 19.1925 23.1145 19.1834 23.1667C19.1793 23.2222 19.1793 23.2779 19.1834 23.3334C19.1806 23.4427 19.2034 23.5511 19.2501 23.65C19.2875 23.7534 19.3472 23.8474 19.425 23.9251C19.5028 24.0029 19.5967 24.0626 19.7001 24.1C19.7998 24.1441 19.9077 24.1669 20.0168 24.1669C20.1258 24.1669 20.2337 24.1441 20.3334 24.1C20.4368 24.0626 20.5307 24.0029 20.6085 23.9251C20.6863 23.8474 20.746 23.7534 20.7834 23.65C20.8204 23.5487 20.8374 23.4412 20.8334 23.3334C20.8341 23.2237 20.813 23.115 20.7716 23.0134C20.7301 22.9119 20.669 22.8196 20.5918 22.7417C20.5143 22.6636 20.4221 22.6016 20.3206 22.5593C20.219 22.517 20.1101 22.4952 20.0001 22.4952C19.8901 22.4952 19.7812 22.517 19.6796 22.5593C19.5781 22.6016 19.4859 22.6636 19.4084 22.7417ZM20.0001 11.6667C18.3519 11.6667 16.7407 12.1554 15.3703 13.0711C13.9999 13.9868 12.9318 15.2883 12.3011 16.811C11.6704 18.3337 11.5053 20.0093 11.8269 21.6258C12.1484 23.2423 12.9421 24.7271 14.1075 25.8926C15.273 27.058 16.7578 27.8517 18.3743 28.1732C19.9908 28.4948 21.6664 28.3297 23.1891 27.699C24.7118 27.0683 26.0133 26.0002 26.929 24.6298C27.8447 23.2594 28.3334 21.6482 28.3334 20C28.3334 18.9057 28.1179 17.822 27.6991 16.811C27.2803 15.7999 26.6665 14.8813 25.8926 14.1075C25.1188 13.3336 24.2002 12.7198 23.1891 12.301C22.1781 11.8822 21.0944 11.6667 20.0001 11.6667ZM20.0001 26.6667C18.6815 26.6667 17.3926 26.2757 16.2963 25.5432C15.2 24.8106 14.3455 23.7694 13.8409 22.5512C13.3363 21.3331 13.2043 19.9926 13.4615 18.6994C13.7188 17.4062 14.3537 16.2183 15.286 15.286C16.2184 14.3536 17.4063 13.7187 18.6995 13.4615C19.9927 13.2042 21.3331 13.3362 22.5513 13.8408C23.7695 14.3454 24.8107 15.1999 25.5432 16.2962C26.2758 17.3925 26.6668 18.6815 26.6668 20C26.6668 21.7681 25.9644 23.4638 24.7141 24.7141C23.4639 25.9643 21.7682 26.6667 20.0001 26.6667ZM20.0001 15.8334C19.561 15.8331 19.1295 15.9485 18.7492 16.1679C18.3688 16.3873 18.053 16.7031 17.8334 17.0834C17.7731 17.1782 17.7326 17.2843 17.7144 17.3952C17.6962 17.5061 17.7005 17.6195 17.7273 17.7287C17.754 17.8378 17.8026 17.9405 17.87 18.0304C17.9374 18.1203 18.0223 18.1956 18.1196 18.2519C18.2169 18.3081 18.3246 18.3441 18.4362 18.3577C18.5478 18.3712 18.6609 18.3621 18.7689 18.3308C18.8768 18.2994 18.9773 18.2466 19.0643 18.1755C19.1513 18.1043 19.223 18.0163 19.2751 17.9167C19.3485 17.7895 19.4542 17.684 19.5815 17.6108C19.7089 17.5377 19.8532 17.4994 20.0001 17.5C20.2211 17.5 20.4331 17.5878 20.5893 17.7441C20.7456 17.9004 20.8334 18.1123 20.8334 18.3334C20.8334 18.5544 20.7456 18.7663 20.5893 18.9226C20.4331 19.0789 20.2211 19.1667 20.0001 19.1667C19.7791 19.1667 19.5671 19.2545 19.4108 19.4108C19.2545 19.567 19.1668 19.779 19.1668 20V20.8334C19.1668 21.0544 19.2545 21.2663 19.4108 21.4226C19.5671 21.5789 19.7791 21.6667 20.0001 21.6667C20.2211 21.6667 20.4331 21.5789 20.5893 21.4226C20.7456 21.2663 20.8334 21.0544 20.8334 20.8334V20.6834C21.3846 20.4834 21.8479 20.096 22.1424 19.5891C22.4369 19.0821 22.5439 18.4878 22.4446 17.9099C22.3453 17.3321 22.0461 16.8075 21.5992 16.4279C21.1524 16.0484 20.5864 15.8379 20.0001 15.8334Z" fill="#2D58FF"/>
</svg>
