<svg width="20" height="21" viewBox="0 0 20 21" fill="none" xmlns="http://www.w3.org/2000/svg">
<circle cx="9.99999" cy="10.5" r="8.33333" fill="#D2DFFA" stroke="white"/>
<path d="M9.99999 2.16667C11.4626 2.16667 12.8995 2.55165 14.1663 3.28291C15.433 4.01417 16.485 5.06596 17.2164 6.33258C17.9479 7.59921 18.3331 9.03604 18.3333 10.4987C18.3336 11.9614 17.9488 13.3983 17.2177 14.6652C16.4867 15.932 15.4351 16.9841 14.1685 17.7158C12.902 18.4475 11.4653 18.8329 10.0026 18.8333C8.53995 18.8338 7.10293 18.4493 5.83597 17.7184C4.569 16.9875 3.51671 15.9361 2.78486 14.6697L9.99999 10.5L9.99999 2.16667Z" fill="#D2DFFA" stroke="white"/>
<path d="M9.99999 2.16667C11.4626 2.16667 12.8995 2.55165 14.1663 3.28291C15.433 4.01417 16.485 5.06596 17.2164 6.33258C17.9479 7.59921 18.3331 9.03604 18.3333 10.4987C18.3336 11.9614 17.9488 13.3983 17.2177 14.6652L9.99999 10.5L9.99999 2.16667Z" fill="#2D58FF" stroke="white"/>
</svg>
