<svg width="16" height="16" viewBox="0 0 16 16" fill="none" xmlns="http://www.w3.org/2000/svg">
<g clip-path="url(#clip0_4180_32116)">
<path d="M3.33333 7.33325H8.66667V8.66659H3.33333V10.6666L0 7.99992L3.33333 5.33325V7.33325ZM2.66667 11.9999H4.472C5.24179 12.6788 6.19112 13.1212 7.20608 13.2739C8.22105 13.4266 9.25852 13.2832 10.194 12.8609C11.1295 12.4386 11.9233 11.7554 12.48 10.8931C13.0368 10.0309 13.333 9.02631 13.333 7.99992C13.333 6.97353 13.0368 5.96895 12.48 5.10671C11.9233 4.24447 11.1295 3.56121 10.194 3.13892C9.25852 2.71662 8.22105 2.57324 7.20608 2.72596C6.19112 2.87868 5.24179 3.32103 4.472 3.99992H2.66667C3.28711 3.17137 4.09222 2.49893 5.01805 2.03602C5.94387 1.5731 6.9649 1.33248 8 1.33325C11.682 1.33325 14.6667 4.31792 14.6667 7.99992C14.6667 11.6819 11.682 14.6666 8 14.6666C6.9649 14.6674 5.94387 14.4267 5.01805 13.9638C4.09222 13.5009 3.28711 12.8285 2.66667 11.9999Z" fill="#3C4D6B"/>
</g>
<defs>
<clipPath id="clip0_4180_32116">
<rect width="16" height="16" fill="white"/>
</clipPath>
</defs>
</svg>
