<svg width="22" height="27" viewBox="0 0 22 27" fill="none" xmlns="http://www.w3.org/2000/svg">
<g clip-path="url(#clip0_128_911)">
<path d="M2.68604 1.23657H15.7463L20.7899 6.65642V25.8066H2.68604V1.23657Z" fill="white"/>
<path d="M7.5174 17.4421H6.93604V20.2123H7.5174C7.80298 20.2123 8.03246 20.1097 8.20075 19.9045C8.36904 19.6993 8.45574 19.4347 8.45574 19.1161V18.5383C8.45574 18.2197 8.36904 17.9605 8.20075 17.7553C8.03246 17.5447 7.80298 17.4421 7.5174 17.4421Z" fill="black"/>
<path d="M4.36087 17.4421H3.59082V18.7759H4.36087C4.58016 18.7759 4.74844 18.7111 4.86064 18.5869C4.97283 18.4627 5.02893 18.3061 5.02893 18.1117C5.02893 17.9173 4.97283 17.7607 4.86064 17.6311C4.74844 17.5069 4.58016 17.4421 4.36087 17.4421Z" fill="black"/>
<path d="M15.884 0H3.36429C2.99202 0 2.68604 0.324 2.68604 0.7182V14.5854H4.04255V1.4364H15.884V6.4152H20.5859V25.5636H4.04255V22.8744H2.68604V26.2818C2.68604 26.676 2.99202 27 3.36429 27H21.2641C21.6364 27 21.9424 26.676 21.9424 26.2818V6.4152L15.884 0Z" fill="#C1C1C1"/>
<path d="M18.8337 8.93164H5.91113V9.99004H18.8337V8.93164Z" fill="#C1C1C1"/>
<path d="M16.7887 10.989H5.91113V12.0474H16.7887V10.989Z" fill="#C1C1C1"/>
<path d="M0.000488281 15.1145H16.5897L14.0909 22.3451H0.000488281V15.1145Z" fill="#E26258"/>
<path d="M5.19922 19.8848H4.43945V19.5781H5.19922C5.34635 19.5781 5.46549 19.5547 5.55664 19.5078C5.64779 19.4609 5.71419 19.3958 5.75586 19.3125C5.79883 19.2292 5.82031 19.1341 5.82031 19.0273C5.82031 18.9297 5.79883 18.8379 5.75586 18.752C5.71419 18.666 5.64779 18.597 5.55664 18.5449C5.46549 18.4915 5.34635 18.4648 5.19922 18.4648H4.52734V21H4.15039V18.1562H5.19922C5.41406 18.1562 5.5957 18.1934 5.74414 18.2676C5.89258 18.3418 6.00521 18.4447 6.08203 18.5762C6.15885 18.7064 6.19727 18.8555 6.19727 19.0234C6.19727 19.2057 6.15885 19.3613 6.08203 19.4902C6.00521 19.6191 5.89258 19.7174 5.74414 19.7852C5.5957 19.8516 5.41406 19.8848 5.19922 19.8848ZM7.44336 21H6.84961L6.85352 20.6934H7.44336C7.64648 20.6934 7.81576 20.651 7.95117 20.5664C8.08659 20.4805 8.18815 20.3607 8.25586 20.207C8.32487 20.0521 8.35938 19.8711 8.35938 19.6641V19.4902C8.35938 19.3275 8.33984 19.1829 8.30078 19.0566C8.26172 18.929 8.20443 18.8216 8.12891 18.7344C8.05339 18.6458 7.96094 18.5788 7.85156 18.5332C7.74349 18.4876 7.61914 18.4648 7.47852 18.4648H6.83789V18.1562H7.47852C7.66471 18.1562 7.83464 18.1875 7.98828 18.25C8.14193 18.3112 8.27409 18.4004 8.38477 18.5176C8.49674 18.6335 8.58268 18.7741 8.64258 18.9395C8.70247 19.1035 8.73242 19.2884 8.73242 19.4941V19.6641C8.73242 19.8698 8.70247 20.0553 8.64258 20.2207C8.58268 20.3848 8.49609 20.5247 8.38281 20.6406C8.27083 20.7565 8.13542 20.8457 7.97656 20.9082C7.81901 20.9694 7.64128 21 7.44336 21ZM7.05078 18.1562V21H6.67383V18.1562H7.05078ZM9.67578 18.1562V21H9.29883V18.1562H9.67578ZM10.8672 19.4355V19.7441H9.59375V19.4355H10.8672ZM11.0605 18.1562V18.4648H9.59375V18.1562H11.0605Z" fill="white"/>
</g>
<defs>
<clipPath id="clip0_128_911">
<rect width="22" height="27" fill="white"/>
</clipPath>
</defs>
</svg>
