<svg width="32" height="32" viewBox="0 0 32 32" fill="none" xmlns="http://www.w3.org/2000/svg">
<rect width="32" height="32" rx="6" fill="#F0F4FF"/>
<path d="M21 7.66667H12.6666C11.7826 7.66667 10.9347 8.01786 10.3096 8.64298C9.6845 9.2681 9.33331 10.116 9.33331 11V21C9.33331 21.8841 9.6845 22.7319 10.3096 23.357C10.9347 23.9821 11.7826 24.3333 12.6666 24.3333H21C21.442 24.3333 21.8659 24.1577 22.1785 23.8452C22.4911 23.5326 22.6666 23.1087 22.6666 22.6667V9.33334C22.6666 8.89131 22.4911 8.46739 22.1785 8.15483C21.8659 7.84227 21.442 7.66667 21 7.66667ZM11 11C11 10.558 11.1756 10.1341 11.4881 9.82149C11.8007 9.50893 12.2246 9.33334 12.6666 9.33334H21V17.6667H12.6666C12.0792 17.6691 11.5033 17.8304 11 18.1333V11ZM12.6666 22.6667C12.2246 22.6667 11.8007 22.4911 11.4881 22.1785C11.1756 21.866 11 21.442 11 21C11 20.558 11.1756 20.1341 11.4881 19.8215C11.8007 19.5089 12.2246 19.3333 12.6666 19.3333H21V22.6667H12.6666ZM14.3333 12.6667H17.6666C17.8877 12.6667 18.0996 12.5789 18.2559 12.4226C18.4122 12.2663 18.5 12.0544 18.5 11.8333C18.5 11.6123 18.4122 11.4004 18.2559 11.2441C18.0996 11.0878 17.8877 11 17.6666 11H14.3333C14.1123 11 13.9003 11.0878 13.7441 11.2441C13.5878 11.4004 13.5 11.6123 13.5 11.8333C13.5 12.0544 13.5878 12.2663 13.7441 12.4226C13.9003 12.5789 14.1123 12.6667 14.3333 12.6667Z" fill="#2D58FF"/>
</svg>
