<?xml version="1.0" encoding="utf-8"?>
<!-- Generator: Adobe Illustrator 23.0.1, SVG Export Plug-In . SVG Version: 6.00 Build 0)  -->
<!DOCTYPE svg PUBLIC "-//W3C//DTD SVG 1.1//EN" "http://www.w3.org/Graphics/SVG/1.1/DTD/svg11.dtd" [
	<!ENTITY ns_extend "http://ns.adobe.com/Extensibility/1.0/">
	<!ENTITY ns_ai "http://ns.adobe.com/AdobeIllustrator/10.0/">
	<!ENTITY ns_graphs "http://ns.adobe.com/Graphs/1.0/">
	<!ENTITY ns_vars "http://ns.adobe.com/Variables/1.0/">
	<!ENTITY ns_imrep "http://ns.adobe.com/ImageReplacement/1.0/">
	<!ENTITY ns_sfw "http://ns.adobe.com/SaveForWeb/1.0/">
	<!ENTITY ns_custom "http://ns.adobe.com/GenericCustomNamespace/1.0/">
	<!ENTITY ns_adobe_xpath "http://ns.adobe.com/XPath/1.0/">
]>
<svg version="1.1" id="Layer_1" xmlns:x="&ns_extend;" xmlns:i="&ns_ai;" xmlns:graph="&ns_graphs;"
	 xmlns="http://www.w3.org/2000/svg" xmlns:xlink="http://www.w3.org/1999/xlink" x="0px" y="0px" viewBox="0 0 482 90"
	 enable-background="new 0 0 482 90" xml:space="preserve">
<metadata>
	<sfw  xmlns="&ns_sfw;">
		<slices></slices>
		<sliceSourceBounds  bottomLeftOrigin="true" height="81.8" width="464.5" x="15" y="-249.4"></sliceSourceBounds>
	</sfw>
</metadata>
<g>
	<path fill="#2E58FF" d="M32.5,65.6c-7.1,0-12.9-2.4-17.5-7.3C10.3,53.4,8,46.3,8,37s2.4-16.7,7.1-22c4.7-5.4,11.8-8,21.2-8
		c7.1,0,13,2.4,17.6,7.2c4.6,4.8,6.9,11.9,6.9,21.2c0,9.3-2.4,16.7-7.1,22.1C49,62.9,41.9,65.6,32.5,65.6z M34.1,57.6
		c6.3,0,10.7-1.9,13.2-5.7c2.5-3.8,3.8-9.3,3.8-16.7s-1.4-12.5-4.3-15.7c-2.9-3.1-6.8-4.7-11.9-4.7c-6.2,0-10.6,1.9-13,5.6
		c-2.5,3.7-3.7,9.3-3.7,16.6c0,7.3,1.4,12.5,4.2,15.7C25.2,56,29.1,57.6,34.1,57.6z M22.1,68.2c8.7,0,15.8,1.2,21.4,3.7
		c2.4,1,4.6,2,6.7,3c4.9,2.4,9.4,3.6,13.5,3.6l-1.7,7.9c-5.9,0-11.1-1.2-15.6-3.6c-1.8-1-3.7-2-5.7-3c-4.8-2.4-10.9-3.6-18.5-3.6
		V68.2z"/>
	<path fill="#2E58FF" d="M107.6,22.9v34.6c0,2,0.2,3.3,0.7,3.8c0.5,0.6,1.5,0.8,3.2,0.8l0.3,5.2c-1.4,0.5-2.9,0.7-4.4,0.7
		c-3.4,0-5.8-1.3-7.2-4c-3.6,3.2-8.1,4.7-13.6,4.7c-10.1,0-15.2-5.4-15.2-16.3V24l9-1.2v28.1c0,7.3,2.9,11,8.7,11
		c4,0,7.1-1.2,9.3-3.5V24L107.6,22.9z"/>
	<path fill="#2E58FF" d="M158.3,26.2v31.1c0,1.9,0.2,3.2,0.7,3.9c0.4,0.6,1.5,1,3.2,1l0.3,5.2c-1.4,0.5-2.9,0.7-4.4,0.7
		c-4.3,0-6.9-2-7.7-5.9c-2.9,4.4-7.3,6.7-13,6.7c-5.7,0-10-2.1-12.8-6.4c-2.8-4.3-4.2-9.8-4.2-16.5s1.9-12.4,5.7-16.8
		c3.8-4.5,9-6.7,15.4-6.7c2.6,0,5.6,0.4,9.1,1.2C154.1,24.5,156.6,25.3,158.3,26.2z M129.8,46.7c0,5.4,0.8,9.3,2.5,11.7
		c1.6,2.4,4,3.6,7.1,3.6c3.1,0,5.5-1.1,7.3-3.3c1.7-2.2,2.6-4.9,2.6-8.1v-20c-2.2-0.7-4.6-1.1-7.4-1.1c-4.2,0-7.3,1.5-9.2,4.6
		C130.8,37.1,129.8,41.3,129.8,46.7z"/>
	<path fill="#2E58FF" d="M174.5,37.6c0-5-0.5-9.5-1.5-13.5l7-0.9l1.6,4.2c4.7-3.3,9.4-4.9,14.3-4.9c10.1,0,15.2,5.4,15.2,16.3v29.1
		h-9V40.4c0-7.3-2.9-11-8.7-11c-3.4,0-6.7,1.2-9.8,3.6v34.9h-9V37.6z"/>
	<path fill="#2E58FF" d="M228.8,14.5l7.1-0.9V25h12.9l-1,6h-11.9v22.3c0,3,0.5,5.2,1.4,6.5c0.9,1.4,2.3,2,4.3,2
		c1.9,0,4.1-0.2,6.6-0.7l1.1,6.1c-3.4,1.1-6.8,1.6-10,1.6c-4.5,0-7.7-1.2-9.5-3.6c-1.9-2.4-2.8-5.8-2.8-10.2V31h-6.2v-5.2l6.2-0.8
		L228.8,14.5z"/>
	<path fill="#2E58FF" d="M265.6,4.6c1.4,0,2.6,0.4,3.5,1.3c0.9,0.9,1.4,2.2,1.4,3.9c0,3.6-1.9,5.4-5.7,5.4c-1.3,0-2.4-0.4-3.3-1.3
		c-0.9-0.9-1.3-2.1-1.3-3.8C260.2,6.5,262,4.6,265.6,4.6z M260.9,67.9V24l9-1.2v45.1H260.9z"/>
	<path fill="#2E58FF" d="M320.2,26.4v38.8c0,6.8-1.8,12-5.3,15.6c-3.5,3.6-8.5,5.4-15,5.4c-4,0-7-0.3-9-0.8c-2-0.6-3.4-1-4.3-1.3
		c-0.9-0.3-1.4-0.5-1.5-0.5l1.9-6.7c3.8,1.4,7.1,2.1,10,2.1c2.9,0,5.1-0.2,6.5-0.5c1.4-0.3,2.8-1,4.1-2c2.4-1.9,3.7-6,3.7-12.3v-1.3
		c-1,1.6-2.5,3-4.6,4.2c-2.1,1.2-4.5,1.9-7.4,1.9c-4.8,0-8.8-1.8-12.1-5.4c-3.3-3.6-4.9-9.1-4.9-16.6c0-7.5,1.8-13.4,5.3-17.8
		c3.6-4.4,8.9-6.6,16.1-6.6C309.2,22.4,314.7,23.8,320.2,26.4z M291.7,46.1c0,5.8,0.8,9.9,2.5,12.3c1.7,2.4,4.1,3.5,7.2,3.5
		c3.1,0,5.6-1.1,7.2-3.3c1.7-2.2,2.5-4.9,2.5-7.9V30.5c-2-0.7-4.3-1.1-7-1.1c-4.5,0-7.7,1.3-9.6,4C292.7,36,291.7,40.3,291.7,46.1z"
		/>
	<path fill="#2E58FF" d="M351.4,22.4c5.4,0,9.9,1.9,13.5,5.7c3.6,3.8,5.3,9.4,5.3,16.8c0,7.4-1.8,13.2-5.5,17.5
		c-3.6,4.3-9.1,6.5-16.4,6.5c-5.4,0-9.9-1.9-13.5-5.8c-3.6-3.9-5.3-9.5-5.3-16.9c0-7.4,1.8-13.2,5.5-17.4
		C338.7,24.6,344.1,22.4,351.4,22.4z M339.1,46.3c0,5.6,0.9,9.6,2.8,12c1.9,2.4,4.6,3.6,8.4,3.6c3.7,0,6.4-1.4,8-4.3
		c1.6-2.9,2.5-7.1,2.5-12.7c0-5.6-0.9-9.5-2.8-11.9c-1.9-2.4-4.4-3.5-7.7-3.5c-4.2,0-7.1,1.4-8.7,4.2
		C339.9,36.5,339.1,40.7,339.1,46.3z"/>
	<path fill="#2E58FF" d="M400.5,67.9l19.7-58.7c0.4-1.2,1.4-1.7,2.9-1.7c0.6,0,3.6,0.2,8.9,0.5l19.9,60h-9.7l-5.4-17.5h-21.1
		l-5.3,17.5H400.5z M417.9,42.9h16.5l-8.3-27v0.5L417.9,42.9z"/>
	<path fill="#2E58FF" d="M463,67.9v-60h9.5v60H463z"/>
</g>
</svg>
