<svg width="32" height="32" viewBox="0 0 32 32" fill="none" xmlns="http://www.w3.org/2000/svg">
<rect width="32" height="32" rx="6" fill="#F0F4FF"/>
<path d="M20.2417 8.35C19.4752 7.71966 18.5778 7.26836 17.6147 7.02904C16.6517 6.78972 15.6473 6.76841 14.675 6.96667C13.3803 7.22819 12.1925 7.8684 11.2622 8.80607C10.332 9.74374 9.70122 10.9366 9.44999 12.2333C9.26653 13.2056 9.29987 14.2064 9.54763 15.1643C9.79539 16.1222 10.2515 17.0136 10.8833 17.775C11.4697 18.4367 11.8059 19.2829 11.8333 20.1667V22.6667C11.8333 23.3297 12.0967 23.9656 12.5656 24.4344C13.0344 24.9033 13.6703 25.1667 14.3333 25.1667H17.6667C18.3297 25.1667 18.9656 24.9033 19.4344 24.4344C19.9033 23.9656 20.1667 23.3297 20.1667 22.6667V20.325C20.1946 19.3493 20.5531 18.412 21.1833 17.6667C22.2876 16.3007 22.8081 14.554 22.6318 12.8064C22.4555 11.0587 21.5965 9.45124 20.2417 8.33333V8.35ZM18.5 22.6667C18.5 22.8877 18.4122 23.0996 18.2559 23.2559C18.0996 23.4122 17.8877 23.5 17.6667 23.5H14.3333C14.1123 23.5 13.9004 23.4122 13.7441 23.2559C13.5878 23.0996 13.5 22.8877 13.5 22.6667V21.8333H18.5V22.6667ZM19.8917 16.6333C19.0537 17.6272 18.5649 18.8684 18.5 20.1667H16.8333V17.6667C16.8333 17.4457 16.7455 17.2337 16.5892 17.0774C16.433 16.9211 16.221 16.8333 16 16.8333C15.779 16.8333 15.567 16.9211 15.4107 17.0774C15.2545 17.2337 15.1667 17.4457 15.1667 17.6667V20.1667H13.5C13.478 18.8901 13.0058 17.6623 12.1667 16.7C11.613 16.0367 11.2407 15.2412 11.0861 14.3911C10.9314 13.5411 10.9997 12.6654 11.2842 11.8496C11.5688 11.0338 12.0598 10.3056 12.7096 9.73611C13.3593 9.16659 14.1456 8.77517 14.9917 8.6C15.7188 8.45029 16.4701 8.46437 17.1911 8.64123C17.9121 8.81808 18.5847 9.15327 19.16 9.62246C19.7353 10.0917 20.199 10.6831 20.5172 11.3538C20.8355 12.0245 21.0004 12.7576 21 13.5C21.0062 14.6416 20.6142 15.7496 19.8917 16.6333Z" fill="#2D58FF"/>
</svg>
