<svg width="20" height="21" viewBox="0 0 20 21" fill="none" xmlns="http://www.w3.org/2000/svg">
<path d="M8.33332 11.3333H2.49999C2.27898 11.3333 2.06701 11.4211 1.91073 11.5774C1.75445 11.7337 1.66666 11.9457 1.66666 12.1667V18C1.66666 18.221 1.75445 18.433 1.91073 18.5893C2.06701 18.7455 2.27898 18.8333 2.49999 18.8333H8.33332C8.55434 18.8333 8.7663 18.7455 8.92258 18.5893C9.07886 18.433 9.16666 18.221 9.16666 18V12.1667C9.16666 11.9457 9.07886 11.7337 8.92258 11.5774C8.7663 11.4211 8.55434 11.3333 8.33332 11.3333ZM7.49999 17.1667H3.33332V13H7.49999V17.1667ZM17.5 2.16667H11.6667C11.4456 2.16667 11.2337 2.25447 11.0774 2.41075C10.9211 2.56703 10.8333 2.77899 10.8333 3.00001V8.83334C10.8333 9.05435 10.9211 9.26631 11.0774 9.42259C11.2337 9.57887 11.4456 9.66667 11.6667 9.66667H17.5C17.721 9.66667 17.933 9.57887 18.0892 9.42259C18.2455 9.26631 18.3333 9.05435 18.3333 8.83334V3.00001C18.3333 2.77899 18.2455 2.56703 18.0892 2.41075C17.933 2.25447 17.721 2.16667 17.5 2.16667ZM16.6667 8.00001H12.5V3.83334H16.6667V8.00001ZM17.5 11.3333H11.6667C11.4456 11.3333 11.2337 11.4211 11.0774 11.5774C10.9211 11.7337 10.8333 11.9457 10.8333 12.1667V18C10.8333 18.221 10.9211 18.433 11.0774 18.5893C11.2337 18.7455 11.4456 18.8333 11.6667 18.8333H17.5C17.721 18.8333 17.933 18.7455 18.0892 18.5893C18.2455 18.433 18.3333 18.221 18.3333 18V12.1667C18.3333 11.9457 18.2455 11.7337 18.0892 11.5774C17.933 11.4211 17.721 11.3333 17.5 11.3333ZM16.6667 17.1667H12.5V13H16.6667V17.1667ZM8.33332 2.16667H2.49999C2.27898 2.16667 2.06701 2.25447 1.91073 2.41075C1.75445 2.56703 1.66666 2.77899 1.66666 3.00001V8.83334C1.66666 9.05435 1.75445 9.26631 1.91073 9.42259C2.06701 9.57887 2.27898 9.66667 2.49999 9.66667H8.33332C8.55434 9.66667 8.7663 9.57887 8.92258 9.42259C9.07886 9.26631 9.16666 9.05435 9.16666 8.83334V3.00001C9.16666 2.77899 9.07886 2.56703 8.92258 2.41075C8.7663 2.25447 8.55434 2.16667 8.33332 2.16667ZM7.49999 8.00001H3.33332V3.83334H7.49999V8.00001Z" fill="#2D58FF"/>
</svg>
