<svg width="24" height="24" viewBox="0 0 24 24" fill="none" xmlns="http://www.w3.org/2000/svg">
<path d="M2.66667 10.8L5.33333 8.13333L12.6667 15.4667L17.3333 10.8L21.3333 14.8V2.66667H2.66667V10.8ZM1.33333 0H22.6667C23.0203 0 23.3594 0.140476 23.6095 0.390524C23.8595 0.640573 24 0.979711 24 1.33333V22.6667C24 23.0203 23.8595 23.3594 23.6095 23.6095C23.3594 23.8595 23.0203 24 22.6667 24H1.33333C0.979711 24 0.640573 23.8595 0.390524 23.6095C0.140476 23.3594 0 23.0203 0 22.6667V1.33333C0 0.979711 0.140476 0.640573 0.390524 0.390524C0.640573 0.140476 0.979711 0 1.33333 0ZM16.6667 9.33333C16.1362 9.33333 15.6275 9.12262 15.2525 8.74755C14.8774 8.37247 14.6667 7.86377 14.6667 7.33333C14.6667 6.8029 14.8774 6.29419 15.2525 5.91912C15.6275 5.54405 16.1362 5.33333 16.6667 5.33333C17.1971 5.33333 17.7058 5.54405 18.0809 5.91912C18.456 6.29419 18.6667 6.8029 18.6667 7.33333C18.6667 7.86377 18.456 8.37247 18.0809 8.74755C17.7058 9.12262 17.1971 9.33333 16.6667 9.33333Z" fill="#D0D5DD"/>
</svg>
