<svg width="8" height="12" viewBox="0 0 8 12" fill="none" xmlns="http://www.w3.org/2000/svg">
<path d="M1.17019 1.00001C0.983936 1.18737 0.879394 1.44082 0.879394 1.70501C0.879394 1.96919 0.983936 2.22264 1.17019 2.41001L4.71019 6.00001L1.17019 9.54001C0.983936 9.72737 0.879394 9.98082 0.879394 10.245C0.879394 10.5092 0.983936 10.7626 1.17019 10.95C1.26315 11.0437 1.37375 11.1181 1.49561 11.1689C1.61747 11.2197 1.74818 11.2458 1.88019 11.2458C2.0122 11.2458 2.1429 11.2197 2.26476 11.1689C2.38662 11.1181 2.49722 11.0437 2.59019 10.95L6.83019 6.71001C6.92392 6.61704 6.99831 6.50644 7.04908 6.38458C7.09985 6.26272 7.12598 6.13202 7.12598 6.00001C7.12598 5.86799 7.09985 5.73729 7.04908 5.61543C6.99831 5.49357 6.92392 5.38297 6.83019 5.29001L2.59019 1.00001C2.49722 0.906278 2.38662 0.831883 2.26476 0.781115C2.1429 0.730346 2.0122 0.704206 1.88019 0.704206C1.74817 0.704206 1.61747 0.730346 1.49561 0.781115C1.37375 0.831883 1.26315 0.906278 1.17019 1.00001Z" fill="#969CAF"/>
</svg>
