<svg width="32" height="32" viewBox="0 0 32 32" fill="none" xmlns="http://www.w3.org/2000/svg">
<rect width="32" height="32" rx="6" fill="#E6ECF5"/>
<path d="M14.3332 16.8333H8.49984C8.27882 16.8333 8.06686 16.9211 7.91058 17.0774C7.7543 17.2337 7.6665 17.4457 7.6665 17.6667V23.5C7.6665 23.721 7.7543 23.933 7.91058 24.0893C8.06686 24.2455 8.27882 24.3333 8.49984 24.3333H14.3332C14.5542 24.3333 14.7661 24.2455 14.9224 24.0893C15.0787 23.933 15.1665 23.721 15.1665 23.5V17.6667C15.1665 17.4457 15.0787 17.2337 14.9224 17.0774C14.7661 16.9211 14.5542 16.8333 14.3332 16.8333ZM13.4998 22.6667H9.33317V18.5H13.4998V22.6667ZM23.4998 7.66667H17.6665C17.4455 7.66667 17.2335 7.75447 17.0772 7.91075C16.921 8.06703 16.8332 8.27899 16.8332 8.50001V14.3333C16.8332 14.5544 16.921 14.7663 17.0772 14.9226C17.2335 15.0789 17.4455 15.1667 17.6665 15.1667H23.4998C23.7209 15.1667 23.9328 15.0789 24.0891 14.9226C24.2454 14.7663 24.3332 14.5544 24.3332 14.3333V8.50001C24.3332 8.27899 24.2454 8.06703 24.0891 7.91075C23.9328 7.75447 23.7209 7.66667 23.4998 7.66667ZM22.6665 13.5H18.4998V9.33334H22.6665V13.5ZM23.4998 16.8333H17.6665C17.4455 16.8333 17.2335 16.9211 17.0772 17.0774C16.921 17.2337 16.8332 17.4457 16.8332 17.6667V23.5C16.8332 23.721 16.921 23.933 17.0772 24.0893C17.2335 24.2455 17.4455 24.3333 17.6665 24.3333H23.4998C23.7209 24.3333 23.9328 24.2455 24.0891 24.0893C24.2454 23.933 24.3332 23.721 24.3332 23.5V17.6667C24.3332 17.4457 24.2454 17.2337 24.0891 17.0774C23.9328 16.9211 23.7209 16.8333 23.4998 16.8333ZM22.6665 22.6667H18.4998V18.5H22.6665V22.6667ZM14.3332 7.66667H8.49984C8.27882 7.66667 8.06686 7.75447 7.91058 7.91075C7.7543 8.06703 7.6665 8.27899 7.6665 8.50001V14.3333C7.6665 14.5544 7.7543 14.7663 7.91058 14.9226C8.06686 15.0789 8.27882 15.1667 8.49984 15.1667H14.3332C14.5542 15.1667 14.7661 15.0789 14.9224 14.9226C15.0787 14.7663 15.1665 14.5544 15.1665 14.3333V8.50001C15.1665 8.27899 15.0787 8.06703 14.9224 7.91075C14.7661 7.75447 14.5542 7.66667 14.3332 7.66667ZM13.4998 13.5H9.33317V9.33334H13.4998V13.5Z" fill="#2E58FF"/>
</svg>
