<svg width="22" height="22" viewBox="0 0 22 22" fill="none" xmlns="http://www.w3.org/2000/svg">
<circle cx="11" cy="11" r="10" fill="#2D58FF"/>
<circle cx="11" cy="11" r="10" fill="#D2DFFA"/>
<circle cx="11" cy="11" r="10" fill="#2EBD56"/>
<circle cx="11" cy="11" r="10" stroke="white"/>
<path d="M14.803 7.91059L14.8606 8.04884L14.803 7.91059C14.7071 7.95055 14.6201 8.00908 14.5469 8.08281C14.5468 8.08289 14.5467 8.08297 14.5467 8.08305L9.90115 12.7348L8.01077 10.8384L8.01079 10.8383L8.00875 10.8364C7.93302 10.7632 7.84361 10.7057 7.74565 10.6671L7.69065 10.8066L7.74565 10.6671C7.64768 10.6285 7.54307 10.6095 7.43778 10.6114C7.3325 10.6132 7.2286 10.6357 7.13203 10.6777C7.03546 10.7197 6.9481 10.7803 6.87494 10.856C6.80178 10.9317 6.74425 11.0211 6.70564 11.1191C6.66704 11.2171 6.6481 11.3217 6.64992 11.427C6.65175 11.5322 6.67429 11.6361 6.71626 11.7327C6.75805 11.8289 6.8183 11.9159 6.89358 11.9889L9.34167 14.437C9.34176 14.437 9.34186 14.4371 9.34195 14.4372C9.41513 14.5109 9.50217 14.5695 9.59806 14.6094C9.69407 14.6494 9.79705 14.67 9.90106 14.67C10.0051 14.67 10.108 14.6494 10.2041 14.6094C10.2999 14.5695 10.387 14.5109 10.4602 14.4372C10.4603 14.4371 10.4603 14.437 10.4604 14.437L15.663 9.23443C15.7418 9.16107 15.8048 9.0723 15.8481 8.97361L15.7107 8.91343L15.8481 8.97361C15.8917 8.87394 15.9143 8.76632 15.9143 8.65751C15.9143 8.5487 15.8917 8.44108 15.8481 8.34141L15.7107 8.40159L15.8481 8.34141C15.8049 8.24277 15.7419 8.15404 15.6631 8.0807C15.5903 8.00796 15.504 7.95017 15.409 7.91059C15.313 7.87059 15.21 7.85 15.106 7.85C15.002 7.85 14.899 7.87059 14.803 7.91059Z" fill="white" stroke="white" stroke-width="0.3"/>
</svg>
