<svg width="32" height="32" viewBox="0 0 32 32" fill="none" xmlns="http://www.w3.org/2000/svg">
<rect width="32" height="32" rx="6" fill="#E6ECF5"/>
<path d="M21.8267 23.5017H20.9933V22.1125C20.9907 21.6356 20.9063 21.1627 20.7437 20.7144C20.7346 20.6899 20.725 20.6672 20.7138 20.6439C20.5788 20.276 20.3924 19.929 20.16 19.6133L18.9934 18.0573C18.6697 17.6239 18.4944 17.0977 18.4933 16.5567V15.7152C18.4952 15.0526 18.7583 14.4175 19.2253 13.9476L19.773 13.3999C20.4094 12.7601 20.8182 11.9292 20.9366 11.0346C20.9371 11.023 20.9433 11.0133 20.9433 11.0016L20.9409 10.9902C20.9699 10.8128 20.9874 10.6336 20.9933 10.4539V8.50167H21.8267C22.0477 8.50167 22.2596 8.41388 22.4159 8.2576C22.5722 8.10132 22.66 7.88935 22.66 7.66834C22.66 7.44733 22.5722 7.23536 22.4159 7.07908C22.2596 6.9228 22.0477 6.83501 21.8267 6.83501H10.16C9.93899 6.83501 9.72703 6.9228 9.57075 7.07908C9.41447 7.23536 9.32667 7.44733 9.32667 7.66834C9.32667 7.88935 9.41447 8.10132 9.57075 8.2576C9.72703 8.41388 9.93899 8.50167 10.16 8.50167H10.9933V10.4539C10.9993 10.6336 11.0168 10.8128 11.0457 10.9902L11.0434 11.0017C11.0434 11.0133 11.0496 11.023 11.05 11.0346C11.1685 11.9292 11.5773 12.7602 12.2136 13.3999L12.7613 13.9476C13.2284 14.4175 13.4914 15.0526 13.4933 15.7152V16.5567C13.4922 17.0976 13.317 17.6237 12.9937 18.0573L11.8263 19.6133C11.594 19.9291 11.4076 20.2762 11.2726 20.6443C11.2615 20.6674 11.252 20.6898 11.243 20.714C11.0804 21.1625 10.9959 21.6355 10.9933 22.1125V23.5017H10.16C9.93898 23.5017 9.72702 23.5895 9.57074 23.7458C9.41446 23.902 9.32666 24.114 9.32666 24.335C9.32666 24.556 9.41446 24.768 9.57074 24.9243C9.72702 25.0805 9.93898 25.1683 10.16 25.1683H21.8267C22.0477 25.1683 22.2596 25.0805 22.4159 24.9243C22.5722 24.768 22.66 24.556 22.66 24.335C22.66 24.114 22.5722 23.902 22.4159 23.7458C22.2596 23.5895 22.0477 23.5017 21.8267 23.5017ZM12.66 10.1683V8.50167H19.3267V10.1683H12.66ZM13.392 12.2216C13.2746 12.1036 13.1694 11.9741 13.0779 11.835H18.9087C18.8173 11.9741 18.7121 12.1036 18.5946 12.2216L18.047 12.7693C17.3969 13.4155 16.9801 14.2594 16.8621 15.1683H15.1246C15.0065 14.2594 14.5897 13.4154 13.9397 12.7692L13.392 12.2216ZM14.3271 19.0567C14.8093 18.4106 15.0952 17.6393 15.1506 16.835H16.836C16.8914 17.6394 17.1775 18.4107 17.66 19.0567L18.4934 20.1683H13.493L14.3271 19.0567ZM19.3267 23.5017H12.66V22.1125C12.6623 22.0197 12.6699 21.927 12.6827 21.835H19.304C19.3168 21.927 19.3243 22.0197 19.3267 22.1125V23.5017Z" fill="#2D58FF"/>
</svg>
