<svg width="32" height="32" viewBox="0 0 32 32" fill="none" xmlns="http://www.w3.org/2000/svg">
<rect width="32" height="32" rx="6" fill="#E6ECF5"/>
<circle cx="15.9998" cy="16" r="8.33333" fill="#D2DFFA" stroke="white"/>
<path d="M15.9998 7.66666C17.648 7.66666 19.2592 8.15541 20.6296 9.07108C22 9.98676 23.0681 11.2883 23.6988 12.811C24.3296 14.3337 24.4946 16.0092 24.173 17.6257C23.8515 19.2423 23.0578 20.7271 21.8924 21.8926C20.727 23.058 19.2421 23.8517 17.6256 24.1732C16.0091 24.4948 14.3335 24.3297 12.8108 23.699C11.2881 23.0683 9.9866 22.0002 9.07092 20.6297C8.15525 19.2593 7.6665 17.6482 7.6665 16H15.9998V7.66666Z" fill="#D2DFFA" stroke="white"/>
<path d="M15.9998 7.66666C17.0942 7.66666 18.1778 7.88221 19.1889 8.301C20.1999 8.71979 21.1186 9.33362 21.8924 10.1074C22.6662 10.8813 23.28 11.7999 23.6988 12.811C24.1176 13.822 24.3332 14.9056 24.3332 16C24.3332 17.0943 24.1176 18.178 23.6988 19.189C23.28 20.2001 22.6662 21.1187 21.8924 21.8926C21.1186 22.6664 20.1999 23.2802 19.1889 23.699C18.1778 24.1178 17.0942 24.3333 15.9998 24.3333L15.9998 16V7.66666Z" fill="#D2DFFA" stroke="white"/>
<path d="M15.9998 7.66666C17.0942 7.66666 18.1778 7.88221 19.1889 8.301C20.1999 8.71979 21.1186 9.33362 21.8924 10.1074C22.6662 10.8813 23.28 11.7999 23.6988 12.811C24.1176 13.822 24.3332 14.9056 24.3332 16L15.9998 16V7.66666Z" fill="#2E58FF" stroke="white"/>
</svg>
