<svg width="32" height="32" viewBox="0 0 32 32" fill="none" xmlns="http://www.w3.org/2000/svg">
<rect width="32" height="32" rx="6" fill="#E6ECF5"/>
<path d="M21.0002 7.66666H12.6668C11.7828 7.66666 10.9349 8.01785 10.3098 8.64297C9.68469 9.26809 9.3335 10.1159 9.3335 11V21C9.3335 21.884 9.68469 22.7319 10.3098 23.357C10.9349 23.9821 11.7828 24.3333 12.6668 24.3333H21.0002C21.4422 24.3333 21.8661 24.1577 22.1787 23.8452C22.4912 23.5326 22.6668 23.1087 22.6668 22.6667V9.33332C22.6668 8.8913 22.4912 8.46737 22.1787 8.15481C21.8661 7.84225 21.4422 7.66666 21.0002 7.66666ZM11.0002 11C11.0002 10.558 11.1758 10.134 11.4883 9.82148C11.8009 9.50892 12.2248 9.33332 12.6668 9.33332H21.0002V17.6667H12.6668C12.0794 17.6691 11.5035 17.8304 11.0002 18.1333V11ZM12.6668 22.6667C12.2248 22.6667 11.8009 22.4911 11.4883 22.1785C11.1758 21.8659 11.0002 21.442 11.0002 21C11.0002 20.558 11.1758 20.134 11.4883 19.8215C11.8009 19.5089 12.2248 19.3333 12.6668 19.3333H21.0002V22.6667H12.6668ZM14.3335 12.6667H17.6668C17.8878 12.6667 18.0998 12.5789 18.2561 12.4226C18.4124 12.2663 18.5002 12.0543 18.5002 11.8333C18.5002 11.6123 18.4124 11.4003 18.2561 11.2441C18.0998 11.0878 17.8878 11 17.6668 11H14.3335C14.1125 11 13.9005 11.0878 13.7442 11.2441C13.588 11.4003 13.5002 11.6123 13.5002 11.8333C13.5002 12.0543 13.588 12.2663 13.7442 12.4226C13.9005 12.5789 14.1125 12.6667 14.3335 12.6667Z" fill="#2D58FF"/>
</svg>
