<svg width="20" height="20" viewBox="0 0 20 20" fill="none" xmlns="http://www.w3.org/2000/svg">
<path d="M14.1665 2.49999H17.4998C17.7209 2.49999 17.9328 2.58779 18.0891 2.74407C18.2454 2.90035 18.3332 3.11231 18.3332 3.33333V16.6667C18.3332 16.8877 18.2454 17.0996 18.0891 17.2559C17.9328 17.4122 17.7209 17.5 17.4998 17.5H2.49984C2.27882 17.5 2.06686 17.4122 1.91058 17.2559C1.7543 17.0996 1.6665 16.8877 1.6665 16.6667V3.33333C1.6665 3.11231 1.7543 2.90035 1.91058 2.74407C2.06686 2.58779 2.27882 2.49999 2.49984 2.49999H5.83317V0.833328H7.49984V2.49999H12.4998V0.833328H14.1665V2.49999ZM12.4998 4.16666H7.49984V5.83333H5.83317V4.16666H3.33317V7.49999H16.6665V4.16666H14.1665V5.83333H12.4998V4.16666ZM16.6665 9.16666H3.33317V15.8333H16.6665V9.16666Z" fill="#476CFF"/>
</svg>
