<svg width="18" height="18" viewBox="0 0 18 18" fill="none" xmlns="http://www.w3.org/2000/svg">
<path d="M9.09186 11.825L5.85852 15.0583C5.46705 15.4361 4.94424 15.6473 4.40019 15.6473C3.85614 15.6473 3.33332 15.4361 2.94186 15.0583C2.74986 14.8671 2.59752 14.6398 2.49357 14.3896C2.38962 14.1393 2.33611 13.871 2.33611 13.6C2.33611 13.329 2.38962 13.0607 2.49357 12.8104C2.59752 12.5602 2.74986 12.3329 2.94186 12.1417L6.17519 8.90833C6.33211 8.75141 6.42027 8.53858 6.42027 8.31666C6.42027 8.09475 6.33211 7.88192 6.17519 7.725C6.01827 7.56808 5.80544 7.47992 5.58352 7.47992C5.3616 7.47992 5.14878 7.56808 4.99186 7.725L1.75852 10.9667C1.10715 11.6757 0.754873 12.6089 0.775251 13.5715C0.79563 14.534 1.18709 15.4515 1.86788 16.1323C2.54868 16.8131 3.46616 17.2046 4.42873 17.2249C5.3913 17.2453 6.32453 16.893 7.03352 16.2417L10.2752 13.0083C10.4321 12.8514 10.5203 12.6386 10.5203 12.4167C10.5203 12.1947 10.4321 11.9819 10.2752 11.825C10.1183 11.6681 9.90544 11.5799 9.68352 11.5799C9.4616 11.5799 9.24878 11.6681 9.09186 11.825ZM16.2419 1.75833C15.5408 1.06167 14.5927 0.670654 13.6044 0.670654C12.616 0.670654 11.6679 1.06167 10.9669 1.75833L7.72519 4.99166C7.64749 5.06936 7.58586 5.1616 7.54381 5.26312C7.50176 5.36464 7.48011 5.47345 7.48011 5.58333C7.48011 5.69321 7.50176 5.80202 7.54381 5.90354C7.58586 6.00506 7.64749 6.0973 7.72519 6.175C7.80289 6.2527 7.89513 6.31433 7.99665 6.35638C8.09817 6.39843 8.20697 6.42007 8.31686 6.42007C8.42674 6.42007 8.53555 6.39843 8.63706 6.35638C8.73858 6.31433 8.83082 6.2527 8.90852 6.175L12.1419 2.94166C12.5333 2.56385 13.0561 2.35271 13.6002 2.35271C14.1442 2.35271 14.6671 2.56385 15.0585 2.94166C15.2505 3.1329 15.4029 3.36017 15.5068 3.61043C15.6108 3.86069 15.6643 4.12901 15.6643 4.4C15.6643 4.67099 15.6108 4.93931 15.5068 5.18957C15.4029 5.43982 15.2505 5.66709 15.0585 5.85833L11.8252 9.09166C11.7471 9.16913 11.6851 9.2613 11.6428 9.36285C11.6005 9.4644 11.5787 9.57332 11.5787 9.68333C11.5787 9.79334 11.6005 9.90226 11.6428 10.0038C11.6851 10.1054 11.7471 10.1975 11.8252 10.275C11.9027 10.3531 11.9948 10.4151 12.0964 10.4574C12.1979 10.4997 12.3068 10.5215 12.4169 10.5215C12.5269 10.5215 12.6358 10.4997 12.7373 10.4574C12.8389 10.4151 12.9311 10.3531 13.0085 10.275L16.2419 7.03333C16.9385 6.33231 17.3295 5.38414 17.3295 4.39583C17.3295 3.40752 16.9385 2.45935 16.2419 1.75833ZM6.35852 11.6417C6.43639 11.7189 6.52874 11.78 6.63027 11.8215C6.7318 11.8629 6.84052 11.884 6.95019 11.8833C7.05986 11.884 7.16858 11.8629 7.27011 11.8215C7.37164 11.78 7.46399 11.7189 7.54186 11.6417L11.6419 7.54166C11.7988 7.38474 11.8869 7.17192 11.8869 6.95C11.8869 6.72808 11.7988 6.51525 11.6419 6.35833C11.4849 6.20141 11.2721 6.11325 11.0502 6.11325C10.8283 6.11325 10.6154 6.20141 10.4585 6.35833L6.35852 10.4583C6.28042 10.5358 6.21842 10.628 6.17611 10.7295C6.13381 10.8311 6.11202 10.94 6.11202 11.05C6.11202 11.16 6.13381 11.2689 6.17611 11.3705C6.21842 11.472 6.28042 11.5642 6.35852 11.6417Z" fill="#2E58FF"/>
</svg>
