<svg width="32" height="32" viewBox="0 0 32 32" fill="none" xmlns="http://www.w3.org/2000/svg">
<rect width="32" height="32" rx="6" fill="#E6ECF5"/>
<path d="M20.2418 8.34999C19.4754 7.71964 18.5779 7.26834 17.6148 7.02902C16.6518 6.7897 15.6474 6.76839 14.6751 6.96665C13.3804 7.22817 12.1926 7.86838 11.2624 8.80605C10.3321 9.74373 9.70134 10.9366 9.45011 12.2333C9.26665 13.2056 9.29999 14.2064 9.54775 15.1643C9.79551 16.1222 10.2516 17.0136 10.8834 17.775C11.4699 18.4367 11.806 19.2829 11.8334 20.1667V22.6667C11.8334 23.3297 12.0968 23.9656 12.5657 24.4344C13.0345 24.9033 13.6704 25.1667 14.3334 25.1667H17.6668C18.3298 25.1667 18.9657 24.9033 19.4345 24.4344C19.9034 23.9656 20.1668 23.3297 20.1668 22.6667V20.325C20.1947 19.3493 20.5532 18.412 21.1834 17.6667C22.2877 16.3006 22.8083 14.554 22.6319 12.8063C22.4556 11.0587 21.5967 9.45123 20.2418 8.33332V8.34999ZM18.5001 22.6667C18.5001 22.8877 18.4123 23.0996 18.256 23.2559C18.0998 23.4122 17.8878 23.5 17.6668 23.5H14.3334C14.1124 23.5 13.9005 23.4122 13.7442 23.2559C13.5879 23.0996 13.5001 22.8877 13.5001 22.6667V21.8333H18.5001V22.6667ZM19.8918 16.6333C19.0539 17.6272 18.565 18.8684 18.5001 20.1667H16.8334V17.6667C16.8334 17.4456 16.7457 17.2337 16.5894 17.0774C16.4331 16.9211 16.2211 16.8333 16.0001 16.8333C15.7791 16.8333 15.5671 16.9211 15.4109 17.0774C15.2546 17.2337 15.1668 17.4456 15.1668 17.6667V20.1667H13.5001C13.4781 18.8901 13.0059 17.6623 12.1668 16.7C11.6131 16.0367 11.2409 15.2412 11.0862 14.3911C10.9316 13.541 10.9998 12.6654 11.2844 11.8496C11.5689 11.0338 12.06 10.3056 12.7097 9.73609C13.3595 9.16658 14.1457 8.77515 14.9918 8.59999C15.7189 8.45027 16.4702 8.46435 17.1913 8.64121C17.9123 8.81807 18.5848 9.15326 19.1602 9.62245C19.7355 10.0916 20.1991 10.6831 20.5173 11.3538C20.8356 12.0245 21.0005 12.7576 21.0001 13.5C21.0063 14.6415 20.6144 15.7495 19.8918 16.6333Z" fill="#2E58FF"/>
</svg>
