<svg width="20" height="20" viewBox="0 0 20 20" fill="none" xmlns="http://www.w3.org/2000/svg">
<path d="M10.0001 1.66667C8.38385 1.66974 6.80336 2.14276 5.45115 3.02812C4.09893 3.91348 3.03337 5.17296 2.38424 6.65315C1.73511 8.13334 1.53044 9.77035 1.79514 11.3648C2.05985 12.9592 2.78252 14.4423 3.87512 15.6333C4.65547 16.4792 5.60257 17.1543 6.65674 17.616C7.7109 18.0777 8.84927 18.3161 10.0001 18.3161C11.151 18.3161 12.2893 18.0777 13.3435 17.616C14.3977 17.1543 15.3448 16.4792 16.1251 15.6333C17.2177 14.4423 17.9404 12.9592 18.2051 11.3648C18.4698 9.77035 18.2651 8.13334 17.616 6.65315C16.9669 5.17296 15.9013 3.91348 14.5491 3.02812C13.1969 2.14276 11.6164 1.66974 10.0001 1.66667ZM10.0001 16.6667C8.27384 16.664 6.61588 15.9919 5.37512 14.7917C5.75183 13.8746 6.39265 13.0903 7.21617 12.5382C8.03968 11.9862 9.00871 11.6915 10.0001 11.6915C10.9915 11.6915 11.9606 11.9862 12.7841 12.5382C13.6076 13.0903 14.2484 13.8746 14.6251 14.7917C13.3844 15.9919 11.7264 16.664 10.0001 16.6667ZM8.33346 8.33334C8.33346 8.0037 8.4312 7.68147 8.61434 7.40739C8.79748 7.13331 9.05777 6.91969 9.36232 6.79354C9.66686 6.66739 10.002 6.63439 10.3253 6.6987C10.6486 6.76301 10.9455 6.92174 11.1786 7.15483C11.4117 7.38792 11.5705 7.68489 11.6348 8.00819C11.6991 8.33149 11.6661 8.6666 11.5399 8.97114C11.4138 9.27569 11.2002 9.53599 10.9261 9.71912C10.652 9.90226 10.3298 10 10.0001 10C9.55809 10 9.13417 9.82441 8.82161 9.51185C8.50905 9.19929 8.33346 8.77537 8.33346 8.33334ZM15.7585 13.3333C15.0139 12.0598 13.868 11.0692 12.5001 10.5167C12.9244 10.0356 13.2009 9.44222 13.2963 8.80787C13.3918 8.17352 13.3022 7.5251 13.0382 6.94042C12.7743 6.35574 12.3473 5.85964 11.8084 5.51164C11.2695 5.16365 10.6416 4.97855 10.0001 4.97855C9.35863 4.97855 8.73076 5.16365 8.19187 5.51164C7.65297 5.85964 7.22593 6.35574 6.962 6.94042C6.69806 7.5251 6.60844 8.17352 6.7039 8.80787C6.79935 9.44222 7.07582 10.0356 7.50012 10.5167C6.13229 11.0692 4.98635 12.0598 4.24179 13.3333C3.64841 12.3226 3.33489 11.1721 3.33346 10C3.33346 8.2319 4.03583 6.5362 5.28608 5.28596C6.53632 4.03572 8.23201 3.33334 10.0001 3.33334C11.7682 3.33334 13.4639 4.03572 14.7142 5.28596C15.9644 6.5362 16.6668 8.2319 16.6668 10C16.6654 11.1721 16.3518 12.3226 15.7585 13.3333Z" fill="white"/>
</svg>
