<svg width="19" height="19" viewBox="0 0 19 19" fill="none" xmlns="http://www.w3.org/2000/svg">
<path d="M8.16663 0.45249C8.44163 0.428323 8.71913 0.416656 8.99996 0.416656C14.2925 0.416656 18.5833 4.70749 18.5833 9.99999C18.5833 10.2808 18.5716 10.5583 18.5475 10.8333H17.2925C16.8741 15.0442 13.3208 18.3333 8.99996 18.3333C4.39746 18.3333 0.666626 14.6025 0.666626 9.99999C0.666626 5.67916 3.95579 2.12582 8.16663 1.70832V0.451656V0.45249ZM8.16663 10.8333V3.38499C6.48555 3.59889 4.949 4.44488 3.86928 5.75101C2.78956 7.05713 2.24769 8.72538 2.35381 10.4167C2.45993 12.108 3.20607 13.6954 4.44058 14.8563C5.67509 16.0173 7.30533 16.6646 8.99996 16.6667C10.6238 16.6666 12.1918 16.074 13.4097 15C14.6277 13.926 15.4118 12.4444 15.615 10.8333H8.16663ZM16.8733 9.16666C16.6822 7.36491 15.8791 5.68315 14.598 4.40198C13.3168 3.12081 11.635 2.3177 9.83329 2.12666V9.16666H16.8733Z" fill="white"/>
</svg>
