<svg width="18" height="18" viewBox="0 0 18 18" fill="none" xmlns="http://www.w3.org/2000/svg">
<path d="M7.33317 9.83332H1.49984C1.27882 9.83332 1.06686 9.92112 0.910582 10.0774C0.754301 10.2337 0.666504 10.4456 0.666504 10.6667V16.5C0.666504 16.721 0.754301 16.933 0.910582 17.0892C1.06686 17.2455 1.27882 17.3333 1.49984 17.3333H7.33317C7.55418 17.3333 7.76615 17.2455 7.92243 17.0892C8.07871 16.933 8.1665 16.721 8.1665 16.5V10.6667C8.1665 10.4456 8.07871 10.2337 7.92243 10.0774C7.76615 9.92112 7.55418 9.83332 7.33317 9.83332ZM6.49984 15.6667H2.33317V11.5H6.49984V15.6667ZM16.4998 0.666656H10.6665C10.4455 0.666656 10.2335 0.754454 10.0772 0.910734C9.92097 1.06701 9.83317 1.27898 9.83317 1.49999V7.33332C9.83317 7.55434 9.92097 7.7663 10.0772 7.92258C10.2335 8.07886 10.4455 8.16666 10.6665 8.16666H16.4998C16.7209 8.16666 16.9328 8.07886 17.0891 7.92258C17.2454 7.7663 17.3332 7.55434 17.3332 7.33332V1.49999C17.3332 1.27898 17.2454 1.06701 17.0891 0.910734C16.9328 0.754454 16.7209 0.666656 16.4998 0.666656ZM15.6665 6.49999H11.4998V2.33332H15.6665V6.49999ZM16.4998 9.83332H10.6665C10.4455 9.83332 10.2335 9.92112 10.0772 10.0774C9.92097 10.2337 9.83317 10.4456 9.83317 10.6667V16.5C9.83317 16.721 9.92097 16.933 10.0772 17.0892C10.2335 17.2455 10.4455 17.3333 10.6665 17.3333H16.4998C16.7209 17.3333 16.9328 17.2455 17.0891 17.0892C17.2454 16.933 17.3332 16.721 17.3332 16.5V10.6667C17.3332 10.4456 17.2454 10.2337 17.0891 10.0774C16.9328 9.92112 16.7209 9.83332 16.4998 9.83332ZM15.6665 15.6667H11.4998V11.5H15.6665V15.6667ZM7.33317 0.666656H1.49984C1.27882 0.666656 1.06686 0.754454 0.910582 0.910734C0.754301 1.06701 0.666504 1.27898 0.666504 1.49999V7.33332C0.666504 7.55434 0.754301 7.7663 0.910582 7.92258C1.06686 8.07886 1.27882 8.16666 1.49984 8.16666H7.33317C7.55418 8.16666 7.76615 8.07886 7.92243 7.92258C8.07871 7.7663 8.1665 7.55434 8.1665 7.33332V1.49999C8.1665 1.27898 8.07871 1.06701 7.92243 0.910734C7.76615 0.754454 7.55418 0.666656 7.33317 0.666656ZM6.49984 6.49999H2.33317V2.33332H6.49984V6.49999Z" fill="#2D58FF"/>
</svg>
