<svg width="18" height="18" viewBox="0 0 18 18" fill="none" xmlns="http://www.w3.org/2000/svg">
<path d="M9.75054 8.9499L9.88089 9.025H9.83697L11.487 9.96001C11.5512 9.9964 11.6015 10.0531 11.6301 10.1211C11.6586 10.1892 11.6637 10.2648 11.6447 10.3361C11.6256 10.4074 11.5834 10.4704 11.5247 10.5151C11.466 10.5599 11.3941 10.5839 11.3203 10.5833L11.3203 10.5833L11.3134 10.5833C11.2555 10.5837 11.1985 10.5691 11.148 10.5408L9.04045 9.32484L9.01205 9.29645L8.99382 9.27821L8.9738 9.26194L8.89604 9.19877C8.89476 9.19635 8.89353 9.19391 8.89234 9.19145L8.88183 9.1696L8.86924 9.14887C8.86039 9.13429 8.85311 9.11882 8.84752 9.10271L8.84177 9.08614L8.83487 9.07001C8.83435 9.06881 8.8339 9.06758 8.8335 9.06634V9.06619V9.06593V9.06567V9.06541V9.06515V9.06489V9.06463V9.06437V9.06412V9.06386V9.0636V9.06334V9.06308V9.06282V9.06256V9.0623V9.06204V9.06178V9.06152V9.06126V9.061V9.06073V9.06047V9.06021V9.05995V9.05969V9.05943V9.05917V9.05891V9.05865V9.05839V9.05813V9.05787V9.05761V9.05735V9.05709V9.05683V9.05657V9.05631V9.05605V9.05579V9.05553V9.05527V9.05501V9.05475V9.05449V9.05423V9.05397V9.05371V9.05345V9.05319V9.05293V9.05267V9.05241V9.05216V9.0519V9.05164V9.05138V9.05112V9.05086V9.05061V9.05035V9.05009V9.04983V9.04958V9.04932V9.04906V9.0488V9.04855V9.04829V9.04803V9.04778V9.04752V9.04727V9.04701V9.04676V9.0465V9.04625V9.04599V9.04574V9.04548V9.04523V9.04498V9.04472V9.04447V9.04422V9.04396V9.04371V9.04346V9.04321V9.04296V9.0427V9.04245V9.0422V9.04195V9.0417V9.04145V9.0412V9.04095V9.0407V9.04046V9.04021V9.03996V9.03971V9.03946V9.03922V9.03897V9.03872V9.03848V9.03823V9.03799V9.03774V9.0375V9.03726V9.03701V9.03677V9.03653V9.03628V9.03604V9.0358V9.03556V9.03532V9.03508V9.03484V9.0346V9.03436V9.03412V9.03388V9.03365V9.03341V9.03317V9.03294V9.0327V9.03246V9.03223V9.03199V9.03176V9.03153V9.03129V9.03106V9.03083V9.0306V9.03037V9.03014V9.02991V9.02968V9.02945V9.02922V9.02899V9.02877V9.02854V9.02831V9.02809V9.02786V9.02764V9.02741V9.02719V9.02697V9.02675V9.02652V9.0263V9.02608V9.02586V9.02564V9.02542V9.02521V9.02499V9.02477V9.02456V9.02434V9.02413V9.02391V9.0237V9.02349V9.02327V9.02306V9.02285V9.02264V9.02243V9.02222V9.02201V9.02181V9.0216V9.02139V9.02119V9.02098V9.02078V9.02058V9.02037V9.02017V9.01997V9.01977V9.01957V9.01937V9.01917V9.01898V9.01878V9.01858V9.01839V9.01819V9.018V9.01781V9.01762V9.01742V9.01723V9.01704V9.01686V9.01667V9.01648V9.01629V9.01611V9.01592V9.01574V9.01556V9.01537V9.01519V9.01501V9.01483V9.01465V9.01447V9.0143V9.01412V9.01394V9.01377V9.0136V9.01342V9.01325V9.01308V9.01291V9.01274V9.01257V9.0124V9.01224V9.01207V9.01191V9.01174V9.01158V9.01142V9.01126V9.0111V9.01094V9.01078V9.01062V9.01047V9.01031V9.01016V9.01V9.00985V9.0097V9.00955V9.0094V9.00925V9.0091V9.00896V9.00881V9.00867V9.00852V9.00838V9.00824V9.0081V9.00796V9.00782V9.00768V9.00755V9.00741V9.00728V9.00715V9.00702V9.00688V9.00675V9.00663V9.0065V9.00637V9.00625V9.00612V9.006V9.00588V9.00576V9.00564V9.00552V9.0054V9.00528V9.00517V9.00505V9.00494V9.00483V9.00472V9.00461V9.0045V9.00439V9.00429V9.00418V9.00408V9.00398V9.00388V9.00378V9.00368V9.00358V9.00348V9.00339V9.00329V9.0032V9.00311V9.00302V9.00293V9.00284V9.00276V9.00267V9.00259V9.0025V9.00242V9.00234V9.00226V9.00218V9.00211V9.00203V9.00196V9.00189V9.00181V9.00174V9.00168V9.00161V9.00154V9.00148V9.00141V9.00135V9.00129V9.00123V9.00117V9.00112V9.00106V9.00101V9.00095V9.0009V9.00085V9.0008V9.00076V9.00071V9.00067V9.00062V9.00058V9.00054V9.0005V9.00047V9.00043V9.00039V9.00036V9.00033V9.0003V9.00027V9.00024V9.00022V9.00019V9.00017V9.00015V9.00013V9.00011V9.00009V9.00008V9.00006V9.00005V9.00004V9.00003V9.00002V9V4.83333C8.8335 4.74493 8.86862 4.66014 8.93113 4.59763C8.99364 4.53512 9.07843 4.5 9.16683 4.5C9.25524 4.5 9.34002 4.53512 9.40253 4.59763C9.46505 4.66014 9.50017 4.74493 9.50017 4.83333V8.51667V8.80563L9.75054 8.9499ZM4.81487 2.48682C6.10305 1.62608 7.61755 1.16667 9.16683 1.16667C10.1955 1.16667 11.2141 1.36928 12.1645 1.76294C13.1149 2.1566 13.9784 2.7336 14.7058 3.461C15.4332 4.18839 16.0102 5.05193 16.4039 6.00231C16.7976 6.9527 17.0002 7.97131 17.0002 9C17.0002 10.5493 16.5407 12.0638 15.68 13.352C14.8193 14.6402 13.5959 15.6442 12.1645 16.2371C10.7332 16.8299 9.15814 16.9851 7.63863 16.6828C6.11911 16.3806 4.72334 15.6345 3.62783 14.539C2.53232 13.4435 1.78627 12.0477 1.48402 10.5282C1.18176 9.00869 1.33689 7.43367 1.92978 6.00231C2.52266 4.57096 3.52668 3.34756 4.81487 2.48682ZM5.18525 14.9589C6.3638 15.7463 7.7494 16.1667 9.16683 16.1667C11.0676 16.1667 12.8904 15.4116 14.2344 14.0676C15.5784 12.7236 16.3335 10.9007 16.3335 9C16.3335 7.58257 15.9132 6.19697 15.1257 5.01841C14.3382 3.83986 13.2189 2.92129 11.9094 2.37886C10.5999 1.83644 9.15888 1.69451 7.76869 1.97104C6.37849 2.24757 5.10151 2.93012 4.09923 3.9324C3.09696 4.93468 2.4144 6.21166 2.13787 7.60185C1.86134 8.99205 2.00327 10.433 2.5457 11.7426C3.08812 13.0521 4.00669 14.1714 5.18525 14.9589Z" stroke="#2D58FF"/>
</svg>
