<svg width="20" height="20" viewBox="0 0 20 20" fill="none" xmlns="http://www.w3.org/2000/svg">
<path d="M9.7503 9.94992L9.88064 10.025H9.83673L11.4867 10.96C11.551 10.9964 11.6013 11.0531 11.6298 11.1212C11.6584 11.1892 11.6635 11.2648 11.6444 11.3361C11.6254 11.4074 11.5832 11.4704 11.5245 11.5151C11.4658 11.5599 11.3939 11.5839 11.3201 11.5834L11.3201 11.5833L11.3131 11.5834C11.2552 11.5838 11.1983 11.5691 11.1478 11.5408L9.0402 10.3249L9.01181 10.2965L8.99357 10.2782L8.97355 10.262L8.8958 10.1988C8.89452 10.1964 8.89329 10.1939 8.8921 10.1915L8.88158 10.1696L8.869 10.1489C8.86015 10.1343 8.85287 10.1188 8.84728 10.1027L8.84153 10.0862L8.83462 10.07C8.83411 10.0688 8.83365 10.0676 8.83326 10.0664V10.0662V10.066V10.0657V10.0654V10.0652V10.0649V10.0647V10.0644V10.0641V10.0639V10.0636V10.0634V10.0631V10.0628V10.0626V10.0623V10.0621V10.0618V10.0615V10.0613V10.061V10.0608V10.0605V10.0602V10.06V10.0597V10.0595V10.0592V10.0589V10.0587V10.0584V10.0582V10.0579V10.0576V10.0574V10.0571V10.0569V10.0566V10.0563V10.0561V10.0558V10.0555V10.0553V10.055V10.0548V10.0545V10.0543V10.054V10.0537V10.0535V10.0532V10.053V10.0527V10.0524V10.0522V10.0519V10.0517V10.0514V10.0511V10.0509V10.0506V10.0504V10.0501V10.0499V10.0496V10.0493V10.0491V10.0488V10.0486V10.0483V10.0481V10.0478V10.0475V10.0473V10.047V10.0468V10.0465V10.0463V10.046V10.0458V10.0455V10.0452V10.045V10.0447V10.0445V10.0442V10.044V10.0437V10.0435V10.0432V10.043V10.0427V10.0425V10.0422V10.042V10.0417V10.0415V10.0412V10.041V10.0407V10.0405V10.0402V10.04V10.0397V10.0395V10.0392V10.039V10.0387V10.0385V10.0383V10.038V10.0378V10.0375V10.0373V10.037V10.0368V10.0365V10.0363V10.0361V10.0358V10.0356V10.0353V10.0351V10.0349V10.0346V10.0344V10.0341V10.0339V10.0337V10.0334V10.0332V10.033V10.0327V10.0325V10.0323V10.032V10.0318V10.0315V10.0313V10.0311V10.0309V10.0306V10.0304V10.0302V10.0299V10.0297V10.0295V10.0292V10.029V10.0288V10.0286V10.0283V10.0281V10.0279V10.0277V10.0274V10.0272V10.027V10.0268V10.0265V10.0263V10.0261V10.0259V10.0257V10.0254V10.0252V10.025V10.0248V10.0246V10.0244V10.0241V10.0239V10.0237V10.0235V10.0233V10.0231V10.0229V10.0227V10.0225V10.0222V10.022V10.0218V10.0216V10.0214V10.0212V10.021V10.0208V10.0206V10.0204V10.0202V10.02V10.0198V10.0196V10.0194V10.0192V10.019V10.0188V10.0186V10.0184V10.0182V10.018V10.0178V10.0176V10.0174V10.0173V10.0171V10.0169V10.0167V10.0165V10.0163V10.0161V10.0159V10.0158V10.0156V10.0154V10.0152V10.015V10.0149V10.0147V10.0145V10.0143V10.0141V10.014V10.0138V10.0136V10.0134V10.0133V10.0131V10.0129V10.0128V10.0126V10.0124V10.0123V10.0121V10.0119V10.0118V10.0116V10.0114V10.0113V10.0111V10.011V10.0108V10.0106V10.0105V10.0103V10.0102V10.01V10.0099V10.0097V10.0096V10.0094V10.0093V10.0091V10.009V10.0088V10.0087V10.0085V10.0084V10.0083V10.0081V10.008V10.0078V10.0077V10.0076V10.0074V10.0073V10.0072V10.007V10.0069V10.0068V10.0066V10.0065V10.0064V10.0063V10.0061V10.006V10.0059V10.0058V10.0057V10.0055V10.0054V10.0053V10.0052V10.0051V10.005V10.0049V10.0047V10.0046V10.0045V10.0044V10.0043V10.0042V10.0041V10.004V10.0039V10.0038V10.0037V10.0036V10.0035V10.0034V10.0033V10.0032V10.0031V10.003V10.003V10.0029V10.0028V10.0027V10.0026V10.0025V10.0024V10.0024V10.0023V10.0022V10.0021V10.0021V10.002V10.0019V10.0018V10.0018V10.0017V10.0016V10.0016V10.0015V10.0014V10.0014V10.0013V10.0013V10.0012V10.0011V10.0011V10.001V10.001V10.0009V10.0009V10.0008V10.0008V10.0007V10.0007V10.0006V10.0006V10.0006V10.0005V10.0005V10.0005V10.0004V10.0004V10.0004V10.0003V10.0003V10.0003V10.0002V10.0002V10.0002V10.0002V10.0001V10.0001V10.0001V10.0001V10.0001V10.0001V10.0001V10V10V10V5.83335C8.83326 5.74495 8.86837 5.66016 8.93089 5.59765C8.9934 5.53514 9.07818 5.50002 9.16659 5.50002C9.25499 5.50002 9.33978 5.53514 9.40229 5.59765C9.4648 5.66016 9.49992 5.74495 9.49992 5.83335V9.51669V9.80565L9.7503 9.94992ZM4.81462 3.48684C6.10281 2.6261 7.6173 2.16669 9.16659 2.16669C10.1953 2.16669 11.2139 2.3693 12.1643 2.76296C13.1147 3.15663 13.9782 3.73362 14.7056 4.46102C15.433 5.18841 16.01 6.05195 16.4036 7.00233C16.7973 7.95272 16.9999 8.97133 16.9999 10C16.9999 11.5493 16.5405 13.0638 15.6798 14.352C14.819 15.6402 13.5956 16.6442 12.1643 17.2371C10.7329 17.83 9.1579 17.9851 7.63838 17.6828C6.11886 17.3806 4.7231 16.6345 3.62759 15.539C2.53207 14.4435 1.78602 13.0477 1.48377 11.5282C1.18152 10.0087 1.33665 8.43369 1.92953 7.00233C2.52242 5.57098 3.52644 4.34758 4.81462 3.48684ZM5.185 15.9589C6.36355 16.7464 7.74916 17.1667 9.16659 17.1667C11.0673 17.1667 12.8902 16.4116 14.2342 15.0676C15.5782 13.7236 16.3333 11.9007 16.3333 10C16.3333 8.58259 15.9129 7.19699 15.1255 6.01843C14.338 4.83988 13.2187 3.92131 11.9092 3.37888C10.5996 2.83646 9.15864 2.69453 7.76844 2.97106C6.37824 3.24759 5.10127 3.93015 4.09899 4.93242C3.09671 5.9347 2.41416 7.21168 2.13763 8.60187C1.8611 9.99207 2.00302 11.433 2.54545 12.7426C3.08788 14.0521 4.00645 15.1714 5.185 15.9589Z" stroke="white"/>
</svg>
