<svg width="18" height="16" viewBox="0 0 18 16" fill="none" xmlns="http://www.w3.org/2000/svg">
<path d="M14.8332 3.41666H12.3332V2.58333C12.3332 1.92029 12.0698 1.2844 11.6009 0.815561C11.1321 0.34672 10.4962 0.0833282 9.83317 0.0833282H8.1665C7.50346 0.0833282 6.86758 0.34672 6.39874 0.815561C5.9299 1.2844 5.6665 1.92029 5.6665 2.58333V3.41666H3.1665C2.50346 3.41666 1.86758 3.68005 1.39874 4.14889C0.929896 4.61774 0.666504 5.25362 0.666504 5.91666V13.4167C0.666504 14.0797 0.929896 14.7156 1.39874 15.1844C1.86758 15.6533 2.50346 15.9167 3.1665 15.9167H14.8332C15.4962 15.9167 16.1321 15.6533 16.6009 15.1844C17.0698 14.7156 17.3332 14.0797 17.3332 13.4167V5.91666C17.3332 5.25362 17.0698 4.61774 16.6009 4.14889C16.1321 3.68005 15.4962 3.41666 14.8332 3.41666ZM7.33317 2.58333C7.33317 2.36231 7.42097 2.15035 7.57725 1.99407C7.73353 1.83779 7.94549 1.74999 8.1665 1.74999H9.83317C10.0542 1.74999 10.2661 1.83779 10.4224 1.99407C10.5787 2.15035 10.6665 2.36231 10.6665 2.58333V3.41666H7.33317V2.58333ZM15.6665 13.4167C15.6665 13.6377 15.5787 13.8496 15.4224 14.0059C15.2661 14.1622 15.0542 14.25 14.8332 14.25H3.1665C2.94549 14.25 2.73353 14.1622 2.57725 14.0059C2.42097 13.8496 2.33317 13.6377 2.33317 13.4167V8.83333C3.14604 9.15575 3.98166 9.41758 4.83317 9.61666V10.1083C4.83317 10.3293 4.92097 10.5413 5.07725 10.6976C5.23353 10.8539 5.44549 10.9417 5.6665 10.9417C5.88752 10.9417 6.09948 10.8539 6.25576 10.6976C6.41204 10.5413 6.49984 10.3293 6.49984 10.1083V9.93333C7.32846 10.0461 8.16358 10.1046 8.99984 10.1083C9.8361 10.1046 10.6712 10.0461 11.4998 9.93333V10.1083C11.4998 10.3293 11.5876 10.5413 11.7439 10.6976C11.9002 10.8539 12.1122 10.9417 12.3332 10.9417C12.5542 10.9417 12.7661 10.8539 12.9224 10.6976C13.0787 10.5413 13.1665 10.3293 13.1665 10.1083V9.61666C14.018 9.41758 14.8536 9.15575 15.6665 8.83333V13.4167ZM15.6665 7.00833C14.856 7.35041 14.0202 7.62902 13.1665 7.84166V7.58333C13.1665 7.36231 13.0787 7.15035 12.9224 6.99407C12.7661 6.83779 12.5542 6.74999 12.3332 6.74999C12.1122 6.74999 11.9002 6.83779 11.7439 6.99407C11.5876 7.15035 11.4998 7.36231 11.4998 7.58333V8.19999C9.84255 8.45003 8.15713 8.45003 6.49984 8.19999V7.58333C6.49984 7.36231 6.41204 7.15035 6.25576 6.99407C6.09948 6.83779 5.88752 6.74999 5.6665 6.74999C5.44549 6.74999 5.23353 6.83779 5.07725 6.99407C4.92097 7.15035 4.83317 7.36231 4.83317 7.58333V7.85833C3.97952 7.64569 3.14367 7.36707 2.33317 7.02499V5.91666C2.33317 5.69565 2.42097 5.48369 2.57725 5.32741C2.73353 5.17113 2.94549 5.08333 3.1665 5.08333H14.8332C15.0542 5.08333 15.2661 5.17113 15.4224 5.32741C15.5787 5.48369 15.6665 5.69565 15.6665 5.91666V7.00833Z" fill="#090080"/>
</svg>
