<svg width="20" height="20" viewBox="0 0 20 20" fill="none" xmlns="http://www.w3.org/2000/svg">
<path d="M15.8334 5.41668H13.3334V4.58334C13.3334 3.9203 13.07 3.28442 12.6012 2.81558C12.1323 2.34674 11.4965 2.08334 10.8334 2.08334H9.16675C8.50371 2.08334 7.86782 2.34674 7.39898 2.81558C6.93014 3.28442 6.66675 3.9203 6.66675 4.58334V5.41668H4.16675C3.50371 5.41668 2.86782 5.68007 2.39898 6.14891C1.93014 6.61775 1.66675 7.25364 1.66675 7.91668V15.4167C1.66675 16.0797 1.93014 16.7156 2.39898 17.1844C2.86782 17.6533 3.50371 17.9167 4.16675 17.9167H15.8334C16.4965 17.9167 17.1323 17.6533 17.6012 17.1844C18.07 16.7156 18.3334 16.0797 18.3334 15.4167V7.91668C18.3334 7.25364 18.07 6.61775 17.6012 6.14891C17.1323 5.68007 16.4965 5.41668 15.8334 5.41668ZM8.33342 4.58334C8.33342 4.36233 8.42121 4.15037 8.57749 3.99409C8.73377 3.83781 8.94573 3.75001 9.16675 3.75001H10.8334C11.0544 3.75001 11.2664 3.83781 11.4227 3.99409C11.579 4.15037 11.6667 4.36233 11.6667 4.58334V5.41668H8.33342V4.58334ZM16.6667 15.4167C16.6667 15.6377 16.579 15.8497 16.4227 16.0059C16.2664 16.1622 16.0544 16.25 15.8334 16.25H4.16675C3.94573 16.25 3.73377 16.1622 3.57749 16.0059C3.42121 15.8497 3.33341 15.6377 3.33341 15.4167V10.8333C4.14628 11.1558 4.9819 11.4176 5.83342 11.6167V12.1083C5.83342 12.3294 5.92121 12.5413 6.07749 12.6976C6.23377 12.8539 6.44573 12.9417 6.66675 12.9417C6.88776 12.9417 7.09972 12.8539 7.256 12.6976C7.41228 12.5413 7.50008 12.3294 7.50008 12.1083V11.9333C8.3287 12.0462 9.16382 12.1046 10.0001 12.1083C10.8363 12.1046 11.6715 12.0462 12.5001 11.9333V12.1083C12.5001 12.3294 12.5879 12.5413 12.7442 12.6976C12.9004 12.8539 13.1124 12.9417 13.3334 12.9417C13.5544 12.9417 13.7664 12.8539 13.9227 12.6976C14.079 12.5413 14.1667 12.3294 14.1667 12.1083V11.6167C15.0183 11.4176 15.8539 11.1558 16.6667 10.8333V15.4167ZM16.6667 9.00834C15.8562 9.35042 15.0204 9.62904 14.1667 9.84168V9.58334C14.1667 9.36233 14.079 9.15037 13.9227 8.99409C13.7664 8.83781 13.5544 8.75001 13.3334 8.75001C13.1124 8.75001 12.9004 8.83781 12.7442 8.99409C12.5879 9.15037 12.5001 9.36233 12.5001 9.58334V10.2C10.8428 10.45 9.15737 10.45 7.50008 10.2V9.58334C7.50008 9.36233 7.41228 9.15037 7.256 8.99409C7.09972 8.83781 6.88776 8.75001 6.66675 8.75001C6.44573 8.75001 6.23377 8.83781 6.07749 8.99409C5.92121 9.15037 5.83342 9.36233 5.83342 9.58334V9.85834C4.97977 9.6457 4.14392 9.36709 3.33341 9.02501V7.91668C3.33341 7.69566 3.42121 7.4837 3.57749 7.32742C3.73377 7.17114 3.94573 7.08334 4.16675 7.08334H15.8334C16.0544 7.08334 16.2664 7.17114 16.4227 7.32742C16.579 7.4837 16.6667 7.69566 16.6667 7.91668V9.00834Z" fill="white"/>
</svg>
