<svg width="18" height="14" viewBox="0 0 18 14" fill="none" xmlns="http://www.w3.org/2000/svg">
<path d="M1.49984 0.333336C1.27882 0.333336 1.06686 0.421133 0.910582 0.577414C0.754301 0.733694 0.666504 0.945655 0.666504 1.16667V12.8333C0.666504 13.0543 0.754301 13.2663 0.910582 13.4226C1.06686 13.5789 1.27882 13.6667 1.49984 13.6667C1.72085 13.6667 1.93281 13.5789 2.08909 13.4226C2.24537 13.2663 2.33317 13.0543 2.33317 12.8333V1.16667C2.33317 0.945655 2.24537 0.733694 2.08909 0.577414C1.93281 0.421133 1.72085 0.333336 1.49984 0.333336ZM17.2665 6.68334C17.2268 6.58104 17.1674 6.48759 17.0915 6.40834L13.7582 3.075C13.6805 2.9973 13.5882 2.93567 13.4867 2.89362C13.3852 2.85157 13.2764 2.82993 13.1665 2.82993C12.9446 2.82993 12.7318 2.91808 12.5748 3.075C12.4179 3.23192 12.3298 3.44475 12.3298 3.66667C12.3298 3.88859 12.4179 4.10142 12.5748 4.25834L14.4915 6.16667H4.83317C4.61216 6.16667 4.4002 6.25447 4.24392 6.41075C4.08763 6.56703 3.99984 6.77899 3.99984 7C3.99984 7.22102 4.08763 7.43298 4.24392 7.58926C4.4002 7.74554 4.61216 7.83334 4.83317 7.83334H14.4915L12.5748 9.74167C12.4967 9.81914 12.4347 9.91131 12.3924 10.0129C12.3501 10.1144 12.3283 10.2233 12.3283 10.3333C12.3283 10.4433 12.3501 10.5523 12.3924 10.6538C12.4347 10.7554 12.4967 10.8475 12.5748 10.925C12.6523 11.0031 12.7445 11.0651 12.846 11.1074C12.9476 11.1497 13.0565 11.1715 13.1665 11.1715C13.2765 11.1715 13.3854 11.1497 13.487 11.1074C13.5885 11.0651 13.6807 11.0031 13.7582 10.925L17.0915 7.59167C17.1674 7.51242 17.2268 7.41896 17.2665 7.31667C17.3499 7.11378 17.3499 6.88622 17.2665 6.68334Z" fill="#2D58FF"/>
</svg>
