<svg width="18" height="13"  color="#FFFFFF" viewBox="0 0 18 13" fill="white" xmlns="http://www.w3.org/2000/svg">
<path d="M2.33317 4.66667H1.83317V5.16667V10.1667C1.83317 10.5203 1.97365 10.8594 2.22369 11.1095C2.47374 11.3595 2.81288 11.5 3.1665 11.5H14.8332C15.1868 11.5 15.5259 11.3595 15.776 11.1095C16.026 10.8594 16.1665 10.5203 16.1665 10.1667V5.16667V4.66667H15.6665H2.33317ZM15.6665 4H16.1665V3.5V2.66667C16.1665 2.31305 16.026 1.97391 15.776 1.72386C15.5259 1.47381 15.1868 1.33333 14.8332 1.33333H3.1665C2.81288 1.33333 2.47374 1.47381 2.2237 1.72386C1.97365 1.97391 1.83317 2.31305 1.83317 2.66667V3.5V4H2.33317H15.6665ZM7.33317 8H4.83317C4.74477 8 4.65998 7.96488 4.59747 7.90237C4.53496 7.83986 4.49984 7.75507 4.49984 7.66667C4.49984 7.57826 4.53496 7.49348 4.59747 7.43097C4.65998 7.36845 4.74477 7.33333 4.83317 7.33333H7.33317C7.42158 7.33333 7.50636 7.36845 7.56887 7.43097C7.63139 7.49348 7.6665 7.57826 7.6665 7.66667C7.6665 7.75507 7.63139 7.83986 7.56887 7.90237C7.50636 7.96488 7.42158 8 7.33317 8ZM3.1665 0.666668H14.8332C15.3636 0.666668 15.8723 0.877382 16.2474 1.25245C16.6225 1.62753 16.8332 2.13623 16.8332 2.66667V10.1667C16.8332 10.6971 16.6225 11.2058 16.2474 11.5809C15.8723 11.956 15.3636 12.1667 14.8332 12.1667H3.1665C2.63607 12.1667 2.12736 11.956 1.75229 11.5809C1.37722 11.2058 1.1665 10.6971 1.1665 10.1667V2.66667C1.1665 2.13623 1.37722 1.62753 1.75229 1.25245C2.12736 0.877382 2.63607 0.666668 3.1665 0.666668Z" stroke="#2D58FF"/>
</svg>
