<svg width="14" height="18" viewBox="0 0 14 18" fill="none" xmlns="http://www.w3.org/2000/svg">
<path d="M8.11141 1.27669L13.0985 6.26376C13.1049 6.27076 13.111 6.27798 13.1168 6.28541V6.30683L13.1429 6.38439C13.1537 6.41639 13.1617 6.44924 13.1668 6.48257V6.48262V6.48277V6.48291V6.48306V6.4832V6.48334V6.48348V6.48362V6.48376V6.4839V6.48403V6.48417V6.48431V6.48444V6.48457V6.48471V6.48484V6.48497V6.4851V6.48523V6.48536V6.48549V6.48562V6.48575V6.48587V6.486V6.48612V6.48625V6.48637V6.4865V6.48662V6.48674V6.48686V6.48698V6.4871V6.48722V6.48733V6.48745V6.48757V6.48768V6.4878V6.48791V6.48803V6.48814V6.48825V6.48836V6.48847V6.48858V6.48869V6.4888V6.48891V6.48901V6.48912V6.48923V6.48933V6.48944V6.48954V6.48964V6.48974V6.48985V6.48995V6.49005V6.49015V6.49025V6.49034V6.49044V6.49054V6.49063V6.49073V6.49083V6.49092V6.49101V6.49111V6.4912V6.49129V6.49138V6.49147V6.49156V6.49165V6.49174V6.49183V6.49191V6.492V6.49209V6.49217V6.49226V6.49234V6.49243V6.49251V6.49259V6.49267V6.49275V6.49283V6.49291V6.49299V6.49307V6.49315V6.49323V6.49331V6.49338V6.49346V6.49353V6.49361V6.49368V6.49376V6.49383V6.4939V6.49397V6.49404V6.49411V6.49418V6.49425V6.49432V6.49439V6.49446V6.49453V6.49459V6.49466V6.49473V6.49479V6.49486V6.49492V6.49498V6.49505V6.49511V6.49517V6.49523V6.49529V6.49535V6.49541V6.49547V6.49553V6.49559V6.49565V6.49571V6.49576V6.49582V6.49587V6.49593V6.49598V6.49604V6.49609V6.49615V6.4962V6.49625V6.4963V6.49635V6.49641V6.49646V6.49651V6.49656V6.4966V6.49665V6.4967V6.49675V6.4968V6.49684V6.49689V6.49693V6.49698V6.49703V6.49707V6.49711V6.49716V6.4972V6.49724V6.49729V6.49733V6.49737V6.49741V6.49745V6.49749V6.49753V6.49757V6.49761V6.49765V6.49768V6.49772V6.49776V6.4978V6.49783V6.49787V6.4979V6.49794V6.49797V6.49801V6.49804V6.49808V6.49811V6.49814V6.49818V6.49821V6.49824V6.49827V6.4983V6.49833V6.49836V6.49839V6.49842V6.49845V6.49848V6.49851V6.49854V6.49856V6.49859V6.49862V6.49864V6.49867V6.4987V6.49872V6.49875V6.49877V6.4988V6.49882V6.49885V6.49887V6.49889V6.49892V6.49894V6.49896V6.49898V6.499V6.49903V6.49905V6.49907V6.49909V6.49911V6.49913V6.49915V6.49917V6.49919V6.49921V6.49922V6.49924V6.49926V6.49928V6.49929V6.49931V6.49933V6.49935V6.49936V6.49938V6.49939V6.49941V6.49942V6.49944V6.49945V6.49947V6.49948V6.4995V6.49951V6.49952V6.49954V6.49955V6.49956V6.49957V6.49959V6.4996V6.49961V6.49962V6.49963V6.49964V6.49965V6.49967V6.49968V6.49969V6.4997V6.49971V6.49972V6.49972V6.49973V6.49974V6.49975V6.49976V6.49977V6.49978V6.49978V6.49979V6.4998V6.49981V6.49982V6.49984V6.49985V6.49986V6.49987V6.49988V6.49989V6.4999V6.49991V6.49992V6.49993V6.49994V6.49995V6.49996V6.49997V6.49998V6.49998V6.49999V6.50001V14.8333C13.1668 15.3638 12.9561 15.8725 12.581 16.2476C12.206 16.6226 11.6973 16.8333 11.1668 16.8333H2.8335C2.30306 16.8333 1.79436 16.6226 1.41928 16.2476C1.04421 15.8725 0.833496 15.3638 0.833496 14.8333V3.16667C0.833496 2.63624 1.04421 2.12753 1.41928 1.75246C1.79436 1.37739 2.30306 1.16667 2.8335 1.16667H7.8358C7.85879 1.17176 7.88092 1.18032 7.90142 1.19207L8.05042 1.27752L8.10381 1.26994C8.10637 1.27216 8.10891 1.27441 8.11141 1.27669ZM9.02038 3.15478L8.16683 2.30123V3.50834V4.83334C8.16683 5.18696 8.30731 5.5261 8.55735 5.77615C8.8074 6.0262 9.14654 6.16667 9.50016 6.16667H10.8252H12.0323L11.1787 5.31312L9.02038 3.15478ZM7.50016 2.33334V1.83334H7.00016H2.8335C2.47987 1.83334 2.14074 1.97381 1.89069 2.22386C1.64064 2.47391 1.50016 2.81305 1.50016 3.16667V14.8333C1.50016 15.187 1.64064 15.5261 1.89069 15.7761C2.14074 16.0262 2.47987 16.1667 2.8335 16.1667H11.1668C11.5205 16.1667 11.8596 16.0262 12.1096 15.7761C12.3597 15.5261 12.5002 15.187 12.5002 14.8333V7.33334V6.83334H12.0002H9.50016C8.96973 6.83334 8.46102 6.62263 8.08595 6.24755C7.71088 5.87248 7.50016 5.36377 7.50016 4.83334V2.33334ZM5.3335 6.83334H4.50016C4.41176 6.83334 4.32697 6.79822 4.26446 6.73571C4.20195 6.67319 4.16683 6.58841 4.16683 6.50001C4.16683 6.4116 4.20195 6.32682 4.26446 6.2643C4.32697 6.20179 4.41176 6.16667 4.50016 6.16667H5.3335C5.4219 6.16667 5.50669 6.20179 5.5692 6.2643C5.63171 6.32682 5.66683 6.4116 5.66683 6.50001C5.66683 6.58841 5.63171 6.6732 5.5692 6.73571C5.50669 6.79822 5.4219 6.83334 5.3335 6.83334ZM4.26446 9.59764C4.32697 9.53512 4.41176 9.50001 4.50016 9.50001H9.50016C9.58857 9.50001 9.67335 9.53512 9.73586 9.59764C9.79838 9.66015 9.8335 9.74493 9.8335 9.83334C9.8335 9.92174 9.79838 10.0065 9.73586 10.069C9.67335 10.1316 9.58857 10.1667 9.50016 10.1667H4.50016C4.41176 10.1667 4.32697 10.1316 4.26446 10.069C4.20195 10.0065 4.16683 9.92174 4.16683 9.83334C4.16683 9.74493 4.20195 9.66015 4.26446 9.59764ZM4.26446 12.931C4.32697 12.8685 4.41176 12.8333 4.50016 12.8333H9.50016C9.58857 12.8333 9.67335 12.8685 9.73586 12.931C9.79838 12.9935 9.8335 13.0783 9.8335 13.1667C9.8335 13.2551 9.79838 13.3399 9.73587 13.4024C9.67335 13.4649 9.58857 13.5 9.50016 13.5H4.50016C4.41176 13.5 4.32697 13.4649 4.26446 13.4024C4.20195 13.3399 4.16683 13.2551 4.16683 13.1667C4.16683 13.0783 4.20195 12.9935 4.26446 12.931Z" stroke="#2D58FF"/>
</svg>
