<svg width="20" height="20" viewBox="0 0 20 20" fill="none" xmlns="http://www.w3.org/2000/svg">
<path d="M11.1112 2.27668L16.0982 7.26374C16.1046 7.27074 16.1107 7.27796 16.1166 7.28539V7.30682L16.1427 7.38437C16.1534 7.41637 16.1614 7.44922 16.1666 7.48256V7.48261V7.48275V7.4829V7.48304V7.48318V7.48332V7.48346V7.4836V7.48374V7.48388V7.48402V7.48415V7.48429V7.48443V7.48456V7.48469V7.48483V7.48496V7.48509V7.48522V7.48535V7.48548V7.4856V7.48573V7.48586V7.48598V7.48611V7.48623V7.48636V7.48648V7.4866V7.48672V7.48684V7.48696V7.48708V7.4872V7.48732V7.48744V7.48755V7.48767V7.48778V7.4879V7.48801V7.48812V7.48823V7.48835V7.48846V7.48857V7.48868V7.48878V7.48889V7.489V7.48911V7.48921V7.48932V7.48942V7.48952V7.48963V7.48973V7.48983V7.48993V7.49003V7.49013V7.49023V7.49033V7.49043V7.49052V7.49062V7.49072V7.49081V7.4909V7.491V7.49109V7.49118V7.49128V7.49137V7.49146V7.49155V7.49164V7.49172V7.49181V7.4919V7.49199V7.49207V7.49216V7.49224V7.49233V7.49241V7.49249V7.49258V7.49266V7.49274V7.49282V7.4929V7.49298V7.49306V7.49314V7.49321V7.49329V7.49337V7.49344V7.49352V7.49359V7.49367V7.49374V7.49381V7.49389V7.49396V7.49403V7.4941V7.49417V7.49424V7.49431V7.49438V7.49444V7.49451V7.49458V7.49464V7.49471V7.49478V7.49484V7.4949V7.49497V7.49503V7.49509V7.49516V7.49522V7.49528V7.49534V7.4954V7.49546V7.49552V7.49557V7.49563V7.49569V7.49575V7.4958V7.49586V7.49591V7.49597V7.49602V7.49608V7.49613V7.49618V7.49624V7.49629V7.49634V7.49639V7.49644V7.49649V7.49654V7.49659V7.49664V7.49669V7.49673V7.49678V7.49683V7.49687V7.49692V7.49696V7.49701V7.49705V7.4971V7.49714V7.49719V7.49723V7.49727V7.49731V7.49735V7.49739V7.49743V7.49748V7.49751V7.49755V7.49759V7.49763V7.49767V7.49771V7.49774V7.49778V7.49782V7.49785V7.49789V7.49792V7.49796V7.49799V7.49803V7.49806V7.49809V7.49813V7.49816V7.49819V7.49822V7.49825V7.49829V7.49832V7.49835V7.49838V7.49841V7.49844V7.49846V7.49849V7.49852V7.49855V7.49858V7.4986V7.49863V7.49866V7.49868V7.49871V7.49873V7.49876V7.49878V7.49881V7.49883V7.49885V7.49888V7.4989V7.49892V7.49895V7.49897V7.49899V7.49901V7.49903V7.49905V7.49907V7.49909V7.49911V7.49913V7.49915V7.49917V7.49919V7.49921V7.49923V7.49924V7.49926V7.49928V7.4993V7.49931V7.49933V7.49935V7.49936V7.49938V7.49939V7.49941V7.49942V7.49944V7.49945V7.49947V7.49948V7.49949V7.49951V7.49952V7.49953V7.49955V7.49956V7.49957V7.49958V7.49959V7.49961V7.49962V7.49963V7.49964V7.49965V7.49966V7.49967V7.49968V7.49969V7.4997V7.49971V7.49972V7.49973V7.49974V7.49974V7.49975V7.49976V7.49977V7.49978V7.49978V7.49979V7.49981V7.49982V7.49983V7.49985V7.49986V7.49987V7.49988V7.49989V7.4999V7.49991V7.49991V7.49992V7.49993V7.49994V7.49995V7.49996V7.49997V7.49998V7.49999V15.8333C16.1666 16.3638 15.9559 16.8725 15.5808 17.2475C15.2057 17.6226 14.697 17.8333 14.1666 17.8333H5.83325C5.30282 17.8333 4.79411 17.6226 4.41904 17.2475C4.04397 16.8725 3.83325 16.3638 3.83325 15.8333V4.16666C3.83325 3.63622 4.04397 3.12752 4.41904 2.75244C4.79411 2.37737 5.30282 2.16666 5.83325 2.16666H10.8356C10.8585 2.17175 10.8807 2.1803 10.9012 2.19206L11.0502 2.27751L11.1036 2.26992C11.1061 2.27214 11.1087 2.27439 11.1112 2.27668ZM12.0201 4.15477L11.1666 3.30122V4.50832V5.83332C11.1666 6.18695 11.3071 6.52608 11.5571 6.77613C11.8072 7.02618 12.1463 7.16666 12.4999 7.16666H13.8249H15.032L14.1785 6.3131L12.0201 4.15477ZM10.4999 3.33332V2.83332H9.99992H5.83325C5.47963 2.83332 5.14049 2.9738 4.89044 3.22385C4.64039 3.4739 4.49992 3.81303 4.49992 4.16666V15.8333C4.49992 16.1869 4.64039 16.5261 4.89044 16.7761C5.14049 17.0262 5.47963 17.1667 5.83325 17.1667H14.1666C14.5202 17.1667 14.8593 17.0262 15.1094 16.7761C15.3594 16.5261 15.4999 16.1869 15.4999 15.8333V8.33332V7.83332H14.9999H12.4999C11.9695 7.83332 11.4608 7.62261 11.0857 7.24754C10.7106 6.87246 10.4999 6.36376 10.4999 5.83332V3.33332ZM8.33325 7.83332H7.49992C7.41151 7.83332 7.32673 7.7982 7.26422 7.73569C7.2017 7.67318 7.16659 7.5884 7.16659 7.49999C7.16659 7.41158 7.2017 7.3268 7.26422 7.26429C7.32673 7.20178 7.41151 7.16666 7.49992 7.16666H8.33325C8.42166 7.16666 8.50644 7.20178 8.56895 7.26429C8.63147 7.3268 8.66658 7.41158 8.66658 7.49999C8.66658 7.5884 8.63147 7.67318 8.56895 7.73569C8.50644 7.7982 8.42166 7.83332 8.33325 7.83332ZM7.26422 10.5976C7.32673 10.5351 7.41151 10.5 7.49992 10.5H12.4999C12.5883 10.5 12.6731 10.5351 12.7356 10.5976C12.7981 10.6601 12.8333 10.7449 12.8333 10.8333C12.8333 10.9217 12.7981 11.0065 12.7356 11.069C12.6731 11.1315 12.5883 11.1667 12.4999 11.1667H7.49992C7.41151 11.1667 7.32673 11.1315 7.26422 11.069C7.2017 11.0065 7.16659 10.9217 7.16659 10.8333C7.16659 10.7449 7.2017 10.6601 7.26422 10.5976ZM7.26422 13.931C7.32673 13.8684 7.41151 13.8333 7.49992 13.8333H12.4999C12.5883 13.8333 12.6731 13.8684 12.7356 13.931C12.7981 13.9935 12.8333 14.0783 12.8333 14.1667C12.8333 14.2551 12.7981 14.3398 12.7356 14.4024C12.6731 14.4649 12.5883 14.5 12.4999 14.5H7.49992C7.41151 14.5 7.32673 14.4649 7.26422 14.4024C7.2017 14.3398 7.16659 14.2551 7.16659 14.1667C7.16659 14.0783 7.2017 13.9935 7.26422 13.931Z" stroke="white"/>
</svg>
