<svg width="18" height="18" viewBox="0 0 18 18" fill="none" xmlns="http://www.w3.org/2000/svg">
<path d="M3.55246 2.69416C5.06459 1.38388 6.99911 0.663873 8.99996 0.666665C13.6025 0.666665 17.3333 4.3975 17.3333 9C17.3333 10.78 16.775 12.43 15.825 13.7833L13.1666 9H15.6666C15.6667 7.69302 15.2827 6.41483 14.5622 5.32438C13.8417 4.23392 12.8166 3.3793 11.6143 2.86677C10.412 2.35424 9.08556 2.20642 7.79992 2.44168C6.51429 2.67694 5.32617 3.28491 4.38329 4.19L3.55246 2.69416ZM14.4475 15.3058C12.9353 16.6161 11.0008 17.3361 8.99996 17.3333C4.39746 17.3333 0.666626 13.6025 0.666626 9C0.666626 7.22 1.22496 5.57 2.17496 4.21666L4.83329 9H2.33329C2.33319 10.307 2.71725 11.5852 3.43774 12.6756C4.15823 13.7661 5.18335 14.6207 6.38564 15.1332C7.58794 15.6458 8.91436 15.7936 10.2 15.5583C11.4856 15.3231 12.6737 14.7151 13.6166 13.81L14.4475 15.3058Z" fill="white"/>
</svg>
