<svg width="20" height="20" viewBox="0 0 20 20" fill="none" xmlns="http://www.w3.org/2000/svg">
<path d="M8.33342 10.8333H2.50008C2.27907 10.8333 2.06711 10.9211 1.91083 11.0774C1.75455 11.2337 1.66675 11.4457 1.66675 11.6667V17.5C1.66675 17.721 1.75455 17.933 1.91083 18.0893C2.06711 18.2455 2.27907 18.3333 2.50008 18.3333H8.33342C8.55443 18.3333 8.76639 18.2455 8.92267 18.0893C9.07895 17.933 9.16675 17.721 9.16675 17.5V11.6667C9.16675 11.4457 9.07895 11.2337 8.92267 11.0774C8.76639 10.9211 8.55443 10.8333 8.33342 10.8333ZM7.50008 16.6667H3.33341V12.5H7.50008V16.6667ZM17.5001 1.66666H11.6667C11.4457 1.66666 11.2338 1.75446 11.0775 1.91074C10.9212 2.06702 10.8334 2.27898 10.8334 2.5V8.33333C10.8334 8.55434 10.9212 8.76631 11.0775 8.92259C11.2338 9.07887 11.4457 9.16666 11.6667 9.16666H17.5001C17.7211 9.16666 17.9331 9.07887 18.0893 8.92259C18.2456 8.76631 18.3334 8.55434 18.3334 8.33333V2.5C18.3334 2.27898 18.2456 2.06702 18.0893 1.91074C17.9331 1.75446 17.7211 1.66666 17.5001 1.66666ZM16.6667 7.5H12.5001V3.33333H16.6667V7.5ZM17.5001 10.8333H11.6667C11.4457 10.8333 11.2338 10.9211 11.0775 11.0774C10.9212 11.2337 10.8334 11.4457 10.8334 11.6667V17.5C10.8334 17.721 10.9212 17.933 11.0775 18.0893C11.2338 18.2455 11.4457 18.3333 11.6667 18.3333H17.5001C17.7211 18.3333 17.9331 18.2455 18.0893 18.0893C18.2456 17.933 18.3334 17.721 18.3334 17.5V11.6667C18.3334 11.4457 18.2456 11.2337 18.0893 11.0774C17.9331 10.9211 17.7211 10.8333 17.5001 10.8333ZM16.6667 16.6667H12.5001V12.5H16.6667V16.6667ZM8.33342 1.66666H2.50008C2.27907 1.66666 2.06711 1.75446 1.91083 1.91074C1.75455 2.06702 1.66675 2.27898 1.66675 2.5V8.33333C1.66675 8.55434 1.75455 8.76631 1.91083 8.92259C2.06711 9.07887 2.27907 9.16666 2.50008 9.16666H8.33342C8.55443 9.16666 8.76639 9.07887 8.92267 8.92259C9.07895 8.76631 9.16675 8.55434 9.16675 8.33333V2.5C9.16675 2.27898 9.07895 2.06702 8.92267 1.91074C8.76639 1.75446 8.55443 1.66666 8.33342 1.66666ZM7.50008 7.5H3.33341V3.33333H7.50008V7.5Z" fill="white"/>
</svg>
