<svg width="20" height="20" viewBox="0 0 20 20" fill="none" xmlns="http://www.w3.org/2000/svg">
<path d="M3.33341 8.66669H2.83341V9.16669V14.1667C2.83341 14.5203 2.97389 14.8594 3.22394 15.1095C3.47399 15.3595 3.81313 15.5 4.16675 15.5H15.8334C16.187 15.5 16.5262 15.3595 16.7762 15.1095C17.0263 14.8594 17.1667 14.5203 17.1667 14.1667V9.16669V8.66669H16.6667H3.33341ZM16.6667 8.00002H17.1667V7.50002V6.66669C17.1667 6.31307 17.0263 5.97393 16.7762 5.72388C16.5262 5.47383 16.187 5.33335 15.8334 5.33335H4.16675C3.81313 5.33335 3.47399 5.47383 3.22394 5.72388C2.97389 5.97393 2.83341 6.31306 2.83341 6.66669V7.50002V8.00002H3.33341H16.6667ZM8.33342 12H5.83342C5.74501 12 5.66023 11.9649 5.59771 11.9024C5.5352 11.8399 5.50008 11.7551 5.50008 11.6667C5.50008 11.5783 5.5352 11.4935 5.59771 11.431C5.66023 11.3685 5.74501 11.3334 5.83342 11.3334H8.33342C8.42182 11.3334 8.5066 11.3685 8.56912 11.431C8.63163 11.4935 8.66675 11.5783 8.66675 11.6667C8.66675 11.7551 8.63163 11.8399 8.56912 11.9024C8.5066 11.9649 8.42182 12 8.33342 12ZM4.16675 4.66669H15.8334C16.3638 4.66669 16.8726 4.8774 17.2476 5.25247C17.6227 5.62755 17.8334 6.13625 17.8334 6.66669V14.1667C17.8334 14.6971 17.6227 15.2058 17.2476 15.5809C16.8726 15.956 16.3638 16.1667 15.8334 16.1667H4.16675C3.63631 16.1667 3.12761 15.956 2.75253 15.5809C2.37746 15.2058 2.16675 14.6971 2.16675 14.1667V6.66669C2.16675 6.13625 2.37746 5.62755 2.75253 5.25247C3.12761 4.8774 3.63632 4.66669 4.16675 4.66669Z" stroke="white"/>
</svg>
