<svg width="20" height="20" viewBox="0 0 20 20" fill="none" xmlns="http://www.w3.org/2000/svg">
<path d="M10.2499 10.1833C10.6946 9.79844 11.0512 9.32239 11.2956 8.78751C11.5401 8.25262 11.6666 7.67141 11.6666 7.08332C11.6666 5.97825 11.2276 4.91845 10.4462 4.13705C9.66479 3.35564 8.60499 2.91666 7.49992 2.91666C6.39485 2.91666 5.33504 3.35564 4.55364 4.13705C3.77224 4.91845 3.33325 5.97825 3.33325 7.08332C3.33325 7.67141 3.45975 8.25262 3.70419 8.78751C3.94863 9.32239 4.30527 9.79844 4.74992 10.1833C3.58337 10.7116 2.59364 11.5646 1.89907 12.6404C1.2045 13.7163 0.834478 14.9694 0.833252 16.25C0.833252 16.471 0.921049 16.683 1.07733 16.8392C1.23361 16.9955 1.44557 17.0833 1.66659 17.0833C1.8876 17.0833 2.09956 16.9955 2.25584 16.8392C2.41212 16.683 2.49992 16.471 2.49992 16.25C2.49992 14.9239 3.0267 13.6521 3.96438 12.7145C4.90207 11.7768 6.17384 11.25 7.49992 11.25C8.826 11.25 10.0978 11.7768 11.0355 12.7145C11.9731 13.6521 12.4999 14.9239 12.4999 16.25C12.4999 16.471 12.5877 16.683 12.744 16.8392C12.9003 16.9955 13.1122 17.0833 13.3333 17.0833C13.5543 17.0833 13.7662 16.9955 13.9225 16.8392C14.0788 16.683 14.1666 16.471 14.1666 16.25C14.1654 14.9694 13.7953 13.7163 13.1008 12.6404C12.4062 11.5646 11.4165 10.7116 10.2499 10.1833ZM7.49992 9.58332C7.00547 9.58332 6.52212 9.4367 6.11099 9.162C5.69987 8.88729 5.37944 8.49685 5.19022 8.04003C5.001 7.58322 4.95149 7.08055 5.04796 6.5956C5.14442 6.11065 5.38252 5.66519 5.73215 5.31556C6.08178 4.96593 6.52724 4.72782 7.01219 4.63136C7.49715 4.5349 7.99981 4.58441 8.45663 4.77362C8.91344 4.96284 9.30389 5.28328 9.57859 5.6944C9.8533 6.10552 9.99992 6.58887 9.99992 7.08332C9.99992 7.74637 9.73653 8.38225 9.26769 8.85109C8.79884 9.31993 8.16296 9.58332 7.49992 9.58332ZM15.6166 9.84999C16.1499 9.24943 16.4983 8.50754 16.6198 7.71361C16.7412 6.91968 16.6307 6.10755 16.3014 5.37499C15.9721 4.64243 15.4381 4.02065 14.7636 3.58451C14.0892 3.14836 13.3031 2.91644 12.4999 2.91666C12.2789 2.91666 12.0669 3.00445 11.9107 3.16073C11.7544 3.31701 11.6666 3.52898 11.6666 3.74999C11.6666 3.971 11.7544 4.18297 11.9107 4.33925C12.0669 4.49553 12.2789 4.58332 12.4999 4.58332C13.163 4.58332 13.7988 4.84672 14.2677 5.31556C14.7365 5.7844 14.9999 6.42028 14.9999 7.08332C14.9987 7.52102 14.8827 7.95074 14.6633 8.32951C14.4439 8.70827 14.129 9.02281 13.7499 9.24166C13.6264 9.31292 13.5232 9.41471 13.4502 9.53727C13.3773 9.65984 13.337 9.79907 13.3333 9.94166C13.3298 10.0831 13.3624 10.2232 13.428 10.3485C13.4936 10.4739 13.59 10.5805 13.7083 10.6583L14.0333 10.875L14.1416 10.9333C15.1461 11.4098 15.9935 12.1633 16.5841 13.1053C17.1746 14.0472 17.4837 15.1383 17.4749 16.25C17.4749 16.471 17.5627 16.683 17.719 16.8392C17.8753 16.9955 18.0872 17.0833 18.3083 17.0833C18.5293 17.0833 18.7412 16.9955 18.8975 16.8392C19.0538 16.683 19.1416 16.471 19.1416 16.25C19.1484 14.9712 18.8281 13.7119 18.2111 12.5917C17.5942 11.4715 16.701 10.5278 15.6166 9.84999Z" fill="white"/>
</svg>
