<svg width="20" height="16" viewBox="0 0 20 16" fill="none" xmlns="http://www.w3.org/2000/svg">
<path d="M10.2502 8.18332C10.6948 7.79844 11.0515 7.32239 11.2959 6.78751C11.5403 6.25262 11.6668 5.67141 11.6668 5.08332C11.6668 3.97825 11.2278 2.91845 10.4464 2.13705C9.66504 1.35564 8.60523 0.916657 7.50016 0.916657C6.39509 0.916657 5.33529 1.35564 4.55388 2.13705C3.77248 2.91845 3.3335 3.97825 3.3335 5.08332C3.33349 5.67141 3.46 6.25262 3.70443 6.78751C3.94887 7.32239 4.30551 7.79844 4.75016 8.18332C3.58361 8.71156 2.59388 9.5646 1.89931 10.6404C1.20474 11.7163 0.834723 12.9694 0.833496 14.25C0.833496 14.471 0.921293 14.683 1.07757 14.8392C1.23385 14.9955 1.44582 15.0833 1.66683 15.0833C1.88784 15.0833 2.0998 14.9955 2.25609 14.8392C2.41237 14.683 2.50016 14.471 2.50016 14.25C2.50016 12.9239 3.02695 11.6521 3.96463 10.7145C4.90231 9.77678 6.17408 9.24999 7.50016 9.24999C8.82624 9.24999 10.098 9.77678 11.0357 10.7145C11.9734 11.6521 12.5002 12.9239 12.5002 14.25C12.5002 14.471 12.588 14.683 12.7442 14.8392C12.9005 14.9955 13.1125 15.0833 13.3335 15.0833C13.5545 15.0833 13.7665 14.9955 13.9228 14.8392C14.079 14.683 14.1668 14.471 14.1668 14.25C14.1656 12.9694 13.7956 11.7163 13.101 10.6404C12.4064 9.5646 11.4167 8.71156 10.2502 8.18332ZM7.50016 7.58332C7.00571 7.58332 6.52236 7.4367 6.11124 7.162C5.70011 6.88729 5.37968 6.49685 5.19046 6.04003C5.00125 5.58322 4.95174 5.08055 5.0482 4.5956C5.14466 4.11065 5.38276 3.66519 5.7324 3.31556C6.08203 2.96593 6.52748 2.72782 7.01244 2.63136C7.49739 2.5349 8.00006 2.58441 8.45687 2.77362C8.91369 2.96284 9.30413 3.28328 9.57884 3.6944C9.85354 4.10552 10.0002 4.58887 10.0002 5.08332C10.0002 5.74637 9.73677 6.38225 9.26793 6.85109C8.79909 7.31993 8.1632 7.58332 7.50016 7.58332ZM15.6168 7.84999C16.1501 7.24943 16.4985 6.50754 16.62 5.71361C16.7415 4.91968 16.6309 4.10755 16.3016 3.37499C15.9723 2.64243 15.4383 2.02065 14.7639 1.58451C14.0895 1.14836 13.3033 0.916442 12.5002 0.916657C12.2791 0.916657 12.0672 1.00445 11.9109 1.16073C11.7546 1.31701 11.6668 1.52898 11.6668 1.74999C11.6668 1.971 11.7546 2.18297 11.9109 2.33925C12.0672 2.49553 12.2791 2.58332 12.5002 2.58332C13.1632 2.58332 13.7991 2.84672 14.2679 3.31556C14.7368 3.7844 15.0002 4.42028 15.0002 5.08332C14.999 5.52102 14.8829 5.95074 14.6635 6.32951C14.4442 6.70827 14.1292 7.02281 13.7502 7.24166C13.6266 7.31292 13.5234 7.41471 13.4505 7.53727C13.3775 7.65984 13.3372 7.79907 13.3335 7.94166C13.33 8.08313 13.3626 8.22315 13.4282 8.34854C13.4938 8.47392 13.5903 8.58053 13.7085 8.65832L14.0335 8.87499L14.1418 8.93332C15.1463 9.40976 15.9938 10.1633 16.5843 11.1053C17.1749 12.0472 17.484 13.1383 17.4752 14.25C17.4752 14.471 17.563 14.683 17.7192 14.8392C17.8755 14.9955 18.0875 15.0833 18.3085 15.0833C18.5295 15.0833 18.7415 14.9955 18.8978 14.8392C19.054 14.683 19.1418 14.471 19.1418 14.25C19.1486 12.9712 18.8283 11.7119 18.2114 10.5917C17.5944 9.47155 16.7013 8.52775 15.6168 7.84999Z" fill="#2D58FF"/>
</svg>
