<svg width="56" height="56" viewBox="0 0 56 56" fill="none" xmlns="http://www.w3.org/2000/svg">
<rect x="4" y="4" width="48" height="48" rx="24" fill="#9381FF" fill-opacity="0.12"/>
<g clip-path="url(#clip0_4141_813)">
<path d="M18 38C18 35.8783 18.8429 33.8434 20.3431 32.3431C21.8434 30.8429 23.8783 30 26 30C28.1217 30 30.1566 30.8429 31.6569 32.3431C33.1571 33.8434 34 35.8783 34 38H18ZM26 29C22.685 29 20 26.315 20 23C20 19.685 22.685 17 26 17C29.315 17 32 19.685 32 23C32 26.315 29.315 29 26 29ZM33.363 31.233C34.8926 31.6261 36.2593 32.4918 37.2683 33.7068C38.2774 34.9218 38.8774 36.4242 38.983 38H36C36 35.39 35 33.014 33.363 31.233ZM31.34 28.957C32.178 28.2075 32.8482 27.2893 33.3066 26.2627C33.765 25.2362 34.0013 24.1243 34 23C34.0021 21.6335 33.6526 20.2894 32.985 19.097C34.1176 19.3246 35.1365 19.9374 35.8685 20.8312C36.6004 21.725 37.0002 22.8447 37 24C37.0003 24.7125 36.8482 25.4168 36.5541 26.0657C36.26 26.7146 35.8305 27.2931 35.2946 27.7625C34.7586 28.2319 34.1285 28.5814 33.4464 28.7874C32.7644 28.9934 32.0462 29.0512 31.34 28.957Z" fill="#9381FF"/>
</g>
<rect x="0.5" y="0.5" width="55" height="55" rx="27.5" stroke="#9381FF" stroke-opacity="0.12"/>
<defs>
<clipPath id="clip0_4141_813">
<rect width="24" height="24" fill="white" transform="translate(16 16)"/>
</clipPath>
</defs>
</svg>
