<svg width="56" height="56" viewBox="0 0 56 56" fill="none" xmlns="http://www.w3.org/2000/svg">
<rect x="4" y="4" width="48" height="48" rx="24" fill="#9B5DE5" fill-opacity="0.12"/>
<g clip-path="url(#clip0_4141_233)">
<path d="M30 30.252V38H20C19.9997 36.7789 20.2789 35.5739 20.8163 34.4774C21.3537 33.3809 22.1349 32.4219 23.1002 31.674C24.0655 30.9261 25.1892 30.4091 26.3852 30.1626C27.5811 29.9162 28.8177 29.9467 30 30.252ZM28 29C24.685 29 22 26.315 22 23C22 19.685 24.685 17 28 17C31.315 17 34 19.685 34 23C34 26.315 31.315 29 28 29ZM34 33V29.5L39 34L34 38.5V35H31V33H34Z" fill="#9B5DE5"/>
</g>
<rect x="0.5" y="0.5" width="55" height="55" rx="27.5" stroke="#9B5DE5" stroke-opacity="0.12"/>
<defs>
<clipPath id="clip0_4141_233">
<rect width="24" height="24" fill="white" transform="translate(16 16)"/>
</clipPath>
</defs>
</svg>
