<svg width="20" height="20" viewBox="0 0 20 20" fill="none" xmlns="http://www.w3.org/2000/svg">
<g clip-path="url(#clip0_4367_629)">
<path d="M14.1667 2.50001H17.5C17.721 2.50001 17.933 2.58781 18.0893 2.74409C18.2456 2.90037 18.3334 3.11233 18.3334 3.33334V16.6667C18.3334 16.8877 18.2456 17.0997 18.0893 17.2559C17.933 17.4122 17.721 17.5 17.5 17.5H2.50002C2.27901 17.5 2.06704 17.4122 1.91076 17.2559C1.75448 17.0997 1.66669 16.8877 1.66669 16.6667V3.33334C1.66669 3.11233 1.75448 2.90037 1.91076 2.74409C2.06704 2.58781 2.27901 2.50001 2.50002 2.50001H5.83335V0.833344H7.50002V2.50001H12.5V0.833344H14.1667V2.50001ZM12.5 4.16668H7.50002V5.83334H5.83335V4.16668H3.33335V7.50001H16.6667V4.16668H14.1667V5.83334H12.5V4.16668ZM16.6667 9.16668H3.33335V15.8333H16.6667V9.16668Z" fill="#62728F"/>
</g>
<defs>
<clipPath id="clip0_4367_629">
<rect width="20" height="20" fill="white"/>
</clipPath>
</defs>
</svg>
