<svg width="57" height="56" viewBox="0 0 57 56" fill="none" xmlns="http://www.w3.org/2000/svg">
<rect x="4.6665" y="4" width="48" height="48" rx="24" fill="#9381FF" fill-opacity="0.12"/>
<g clip-path="url(#clip0_4351_11365)">
<path d="M25.6665 29V32H31.6665V29H38.6665V36C38.6665 36.2652 38.5611 36.5196 38.3736 36.7071C38.1861 36.8946 37.9317 37 37.6665 37H19.6665C19.4013 37 19.1469 36.8946 18.9594 36.7071C18.7719 36.5196 18.6665 36.2652 18.6665 36V29H25.6665ZM27.6665 27H29.6665V30H27.6665V27ZM23.6665 21V18C23.6665 17.7348 23.7719 17.4804 23.9594 17.2929C24.1469 17.1054 24.4013 17 24.6665 17H32.6665C32.9317 17 33.1861 17.1054 33.3736 17.2929C33.5611 17.4804 33.6665 17.7348 33.6665 18V21H37.6665C37.9317 21 38.1861 21.1054 38.3736 21.2929C38.5611 21.4804 38.6665 21.7348 38.6665 22V27H31.6665V25H25.6665V27H18.6665V22C18.6665 21.7348 18.7719 21.4804 18.9594 21.2929C19.1469 21.1054 19.4013 21 19.6665 21H23.6665ZM25.6665 19V21H31.6665V19H25.6665Z" fill="#9381FF"/>
</g>
<rect x="1.1665" y="0.5" width="55" height="55" rx="27.5" stroke="#9381FF" stroke-opacity="0.12"/>
<defs>
<clipPath id="clip0_4351_11365">
<rect width="24" height="24" fill="white" transform="translate(16.6665 16)"/>
</clipPath>
</defs>
</svg>
