<svg width="57" height="56" viewBox="0 0 57 56" fill="none" xmlns="http://www.w3.org/2000/svg">
<rect x="4.3335" y="4" width="48" height="48" rx="24" fill="#FB6F92" fill-opacity="0.12"/>
<g clip-path="url(#clip0_4352_870)">
<path d="M25.3335 29V32H31.3335V29H38.3335V36C38.3335 36.2652 38.2281 36.5196 38.0406 36.7071C37.8531 36.8946 37.5987 37 37.3335 37H19.3335C19.0683 37 18.8139 36.8946 18.6264 36.7071C18.4389 36.5196 18.3335 36.2652 18.3335 36V29H25.3335ZM27.3335 27H29.3335V30H27.3335V27ZM23.3335 21V18C23.3335 17.7348 23.4389 17.4804 23.6264 17.2929C23.8139 17.1054 24.0683 17 24.3335 17H32.3335C32.5987 17 32.8531 17.1054 33.0406 17.2929C33.2281 17.4804 33.3335 17.7348 33.3335 18V21H37.3335C37.5987 21 37.8531 21.1054 38.0406 21.2929C38.2281 21.4804 38.3335 21.7348 38.3335 22V27H31.3335V25H25.3335V27H18.3335V22C18.3335 21.7348 18.4389 21.4804 18.6264 21.2929C18.8139 21.1054 19.0683 21 19.3335 21H23.3335ZM25.3335 19V21H31.3335V19H25.3335Z" fill="#FB6F92"/>
</g>
<rect x="0.833496" y="0.5" width="55" height="55" rx="27.5" stroke="#FB6F92" stroke-opacity="0.12"/>
<defs>
<clipPath id="clip0_4352_870">
<rect width="24" height="24" fill="white" transform="translate(16.3335 16)"/>
</clipPath>
</defs>
</svg>
