<svg width="56" height="56" viewBox="0 0 56 56" fill="none" xmlns="http://www.w3.org/2000/svg">
<rect x="4" y="4" width="48" height="48" rx="24" fill="#7CB518" fill-opacity="0.12"/>
<g clip-path="url(#clip0_4352_3785)">
<path d="M25 29V32H31V29H38V36C38 36.2652 37.8946 36.5196 37.7071 36.7071C37.5196 36.8946 37.2652 37 37 37H19C18.7348 37 18.4804 36.8946 18.2929 36.7071C18.1054 36.5196 18 36.2652 18 36V29H25ZM27 27H29V30H27V27ZM23 21V18C23 17.7348 23.1054 17.4804 23.2929 17.2929C23.4804 17.1054 23.7348 17 24 17H32C32.2652 17 32.5196 17.1054 32.7071 17.2929C32.8946 17.4804 33 17.7348 33 18V21H37C37.2652 21 37.5196 21.1054 37.7071 21.2929C37.8946 21.4804 38 21.7348 38 22V27H31V25H25V27H18V22C18 21.7348 18.1054 21.4804 18.2929 21.2929C18.4804 21.1054 18.7348 21 19 21H23ZM25 19V21H31V19H25Z" fill="#7CB518"/>
</g>
<rect x="0.5" y="0.5" width="55" height="55" rx="27.5" stroke="#7CB518" stroke-opacity="0.12"/>
<defs>
<clipPath id="clip0_4352_3785">
<rect width="24" height="24" fill="white" transform="translate(16 16)"/>
</clipPath>
</defs>
</svg>
