<svg width="56" height="56" viewBox="0 0 56 56" fill="none" xmlns="http://www.w3.org/2000/svg">
<rect x="4" y="4" width="48" height="48" rx="24" fill="#FB6F92" fill-opacity="0.12"/>
<g clip-path="url(#clip0_4141_251)">
<path d="M29.414 21H36C36.2652 21 36.5196 21.1054 36.7071 21.2929C36.8946 21.4804 37 21.7348 37 22V23H19V20C19 19.7348 19.1054 19.4804 19.2929 19.2929C19.4804 19.1054 19.7348 19 20 19H27.414L29.414 21ZM19.087 25H36.913C37.0514 24.9999 37.1882 25.0286 37.3149 25.0841C37.4416 25.1397 37.5555 25.2209 37.6492 25.3227C37.7429 25.4245 37.8144 25.5446 37.8593 25.6755C37.9042 25.8064 37.9215 25.9451 37.91 26.083L37.076 36.083C37.0552 36.3329 36.9413 36.5658 36.7568 36.7357C36.5723 36.9055 36.3308 36.9999 36.08 37H19.92C19.6692 36.9999 19.4277 36.9055 19.2432 36.7357C19.0587 36.5658 18.9448 36.3329 18.924 36.083L18.09 26.083C18.0785 25.9451 18.0958 25.8064 18.1407 25.6755C18.1856 25.5446 18.2571 25.4245 18.3508 25.3227C18.4445 25.2209 18.5584 25.1397 18.6851 25.0841C18.8118 25.0286 18.9486 24.9999 19.087 25Z" fill="#FB6F92"/>
</g>
<rect x="0.5" y="0.5" width="55" height="55" rx="27.5" stroke="#FB6F92" stroke-opacity="0.12"/>
<defs>
<clipPath id="clip0_4141_251">
<rect width="24" height="24" fill="white" transform="translate(16 16)"/>
</clipPath>
</defs>
</svg>
