<svg width="57" height="56" viewBox="0 0 57 56" fill="none" xmlns="http://www.w3.org/2000/svg">
<rect x="4.6665" y="4" width="48" height="48" rx="24" fill="#2EC4B6" fill-opacity="0.12"/>
<g clip-path="url(#clip0_4352_260)">
<path d="M37.6665 37H29.6665V22C29.6665 21.2044 29.9826 20.4413 30.5452 19.8787C31.1078 19.3161 31.8709 19 32.6665 19H37.6665C37.9317 19 38.1861 19.1054 38.3736 19.2929C38.5611 19.4804 38.6665 19.7348 38.6665 20V36C38.6665 36.2652 38.5611 36.5196 38.3736 36.7071C38.1861 36.8946 37.9317 37 37.6665 37ZM27.6665 37H19.6665C19.4013 37 19.1469 36.8946 18.9594 36.7071C18.7719 36.5196 18.6665 36.2652 18.6665 36V20C18.6665 19.7348 18.7719 19.4804 18.9594 19.2929C19.1469 19.1054 19.4013 19 19.6665 19H24.6665C25.4622 19 26.2252 19.3161 26.7878 19.8787C27.3504 20.4413 27.6665 21.2044 27.6665 22V37ZM27.6665 37H29.6665V39H27.6665V37Z" fill="#2EC4B6"/>
</g>
<rect x="1.1665" y="0.5" width="55" height="55" rx="27.5" stroke="#2EC4B6" stroke-opacity="0.12"/>
<defs>
<clipPath id="clip0_4352_260">
<rect width="24" height="24" fill="white" transform="translate(16.6665 16)"/>
</clipPath>
</defs>
</svg>
