<svg width="21" height="20" viewBox="0 0 21 20" fill="none" xmlns="http://www.w3.org/2000/svg">
<path d="M10.5 2.5C14.9933 2.5 18.7316 5.73333 19.5158 10C18.7325 14.2667 14.9933 17.5 10.5 17.5C6.00663 17.5 2.2683 14.2667 1.48413 10C2.26746 5.73333 6.00663 2.5 10.5 2.5ZM10.5 15.8333C12.1995 15.833 13.8486 15.2557 15.1773 14.196C16.5061 13.1363 17.4357 11.6569 17.8141 10C17.4343 8.34442 16.5041 6.86667 15.1755 5.80835C13.8469 4.75004 12.1985 4.17377 10.5 4.17377C8.80138 4.17377 7.15304 4.75004 5.82444 5.80835C4.49585 6.86667 3.5656 8.34442 3.1858 10C3.56421 11.6569 4.49386 13.1363 5.82258 14.196C7.15131 15.2557 8.80041 15.833 10.5 15.8333ZM10.5 13.75C9.5054 13.75 8.55158 13.3549 7.84831 12.6516C7.14505 11.9484 6.74996 10.9946 6.74996 10C6.74996 9.00544 7.14505 8.05161 7.84831 7.34835C8.55158 6.64509 9.5054 6.25 10.5 6.25C11.4945 6.25 12.4484 6.64509 13.1516 7.34835C13.8549 8.05161 14.25 9.00544 14.25 10C14.25 10.9946 13.8549 11.9484 13.1516 12.6516C12.4484 13.3549 11.4945 13.75 10.5 13.75ZM10.5 12.0833C11.0525 12.0833 11.5824 11.8638 11.9731 11.4731C12.3638 11.0824 12.5833 10.5525 12.5833 10C12.5833 9.44747 12.3638 8.91756 11.9731 8.52686C11.5824 8.13616 11.0525 7.91667 10.5 7.91667C9.94743 7.91667 9.41753 8.13616 9.02682 8.52686C8.63612 8.91756 8.41663 9.44747 8.41663 10C8.41663 10.5525 8.63612 11.0824 9.02682 11.4731C9.41753 11.8638 9.94743 12.0833 10.5 12.0833Z" fill="#2E58FF"/>
</svg>
